<svg viewBox="0 0 64 64" xmlns="http://www.w3.org/2000/svg">
  <defs>
    <linearGradient id="qrGradient" x1="0%" y1="0%" x2="100%" y2="100%">
      <stop offset="0%" style="stop-color:#4F46E5;stop-opacity:1" />
      <stop offset="100%" style="stop-color:#7C3AED;stop-opacity:1" />
    </linearGradient>
    <filter id="shadow" x="-20%" y="-20%" width="140%" height="140%">
      <feDropShadow dx="2" dy="2" stdDeviation="3" flood-color="#000" flood-opacity="0.2"/>
    </filter>
  </defs>
  
  <!-- Background -->
  <rect x="8" y="8" width="48" height="48" rx="6" fill="url(#qrGradient)" filter="url(#shadow)"/>
  
  <!-- QR Code Pattern -->
  <!-- Top-left corner -->
  <rect x="12" y="12" width="12" height="12" fill="white" rx="1"/>
  <rect x="14" y="14" width="8" height="8" fill="url(#qrGradient)" rx="1"/>
  <rect x="16" y="16" width="4" height="4" fill="white" rx="0.5"/>
  
  <!-- Top-right corner -->
  <rect x="40" y="12" width="12" height="12" fill="white" rx="1"/>
  <rect x="42" y="14" width="8" height="8" fill="url(#qrGradient)" rx="1"/>
  <rect x="44" y="16" width="4" height="4" fill="white" rx="0.5"/>
  
  <!-- Bottom-left corner -->
  <rect x="12" y="40" width="12" height="12" fill="white" rx="1"/>
  <rect x="14" y="42" width="8" height="8" fill="url(#qrGradient)" rx="1"/>
  <rect x="16" y="44" width="4" height="4" fill="white" rx="0.5"/>
  
  <!-- Data pattern -->
  <rect x="28" y="12" width="2" height="2" fill="white"/>
  <rect x="32" y="12" width="2" height="2" fill="white"/>
  <rect x="36" y="12" width="2" height="2" fill="white"/>
  
  <rect x="12" y="28" width="2" height="2" fill="white"/>
  <rect x="16" y="28" width="2" height="2" fill="white"/>
  <rect x="20" y="28" width="2" height="2" fill="white"/>
  
  <rect x="28" y="16" width="2" height="2" fill="white"/>
  <rect x="32" y="16" width="2" height="2" fill="white"/>
  <rect x="36" y="16" width="2" height="2" fill="white"/>
  
  <rect x="28" y="20" width="2" height="2" fill="white"/>
  <rect x="32" y="20" width="2" height="2" fill="white"/>
  <rect x="36" y="20" width="2" height="2" fill="white"/>
  
  <rect x="28" y="28" width="2" height="2" fill="white"/>
  <rect x="32" y="28" width="2" height="2" fill="white"/>
  <rect x="36" y="28" width="2" height="2" fill="white"/>
  
  <rect x="28" y="32" width="2" height="2" fill="white"/>
  <rect x="32" y="32" width="2" height="2" fill="white"/>
  <rect x="36" y="32" width="2" height="2" fill="white"/>
  
  <rect x="40" y="28" width="2" height="2" fill="white"/>
  <rect x="44" y="28" width="2" height="2" fill="white"/>
  <rect x="48" y="28" width="2" height="2" fill="white"/>
  
  <rect x="40" y="32" width="2" height="2" fill="white"/>
  <rect x="44" y="32" width="2" height="2" fill="white"/>
  <rect x="48" y="32" width="2" height="2" fill="white"/>
  
  <rect x="40" y="36" width="2" height="2" fill="white"/>
  <rect x="44" y="36" width="2" height="2" fill="white"/>
  <rect x="48" y="36" width="2" height="2" fill="white"/>
  
  <rect x="28" y="40" width="2" height="2" fill="white"/>
  <rect x="32" y="40" width="2" height="2" fill="white"/>
  <rect x="36" y="40" width="2" height="2" fill="white"/>
  
  <rect x="28" y="44" width="2" height="2" fill="white"/>
  <rect x="32" y="44" width="2" height="2" fill="white"/>
  <rect x="36" y="44" width="2" height="2" fill="white"/>
  
  <rect x="28" y="48" width="2" height="2" fill="white"/>
  <rect x="32" y="48" width="2" height="2" fill="white"/>
  <rect x="36" y="48" width="2" height="2" fill="white"/>
</svg>