<svg viewBox="0 0 64 64" xmlns="http://www.w3.org/2000/svg">
  <defs>
    <linearGradient id="3dGradient" x1="0%" y1="0%" x2="100%" y2="100%">
      <stop offset="0%" style="stop-color:#8B5CF6;stop-opacity:1" />
      <stop offset="100%" style="stop-color:#7C3AED;stop-opacity:1" />
    </linearGradient>
    <linearGradient id="cubeGradient1" x1="0%" y1="0%" x2="100%" y2="100%">
      <stop offset="0%" style="stop-color:#F3F4F6;stop-opacity:1" />
      <stop offset="100%" style="stop-color:#E5E7EB;stop-opacity:1" />
    </linearGradient>
    <linearGradient id="cubeGradient2" x1="0%" y1="0%" x2="100%" y2="100%">
      <stop offset="0%" style="stop-color:#D1D5DB;stop-opacity:1" />
      <stop offset="100%" style="stop-color:#9CA3AF;stop-opacity:1" />
    </linearGradient>
    <linearGradient id="cubeGradient3" x1="0%" y1="0%" x2="100%" y2="100%">
      <stop offset="0%" style="stop-color:#6B7280;stop-opacity:1" />
      <stop offset="100%" style="stop-color:#4B5563;stop-opacity:1" />
    </linearGradient>
    <filter id="shadow" x="-20%" y="-20%" width="140%" height="140%">
      <feDropShadow dx="2" dy="2" stdDeviation="3" flood-color="#000" flood-opacity="0.2"/>
    </filter>
  </defs>
  
  <!-- Background -->
  <rect x="8" y="8" width="48" height="48" rx="8" fill="url(#3dGradient)" filter="url(#shadow)"/>
  
  <!-- 3D Cube -->
  <!-- Front face -->
  <path d="M 20 20 L 36 20 L 36 36 L 20 36 Z" fill="url(#cubeGradient1)" stroke="#374151" stroke-width="1"/>
  
  <!-- Top face -->
  <path d="M 20 20 L 24 16 L 40 16 L 36 20 Z" fill="url(#cubeGradient2)" stroke="#374151" stroke-width="1"/>
  
  <!-- Right face -->
  <path d="M 36 20 L 40 16 L 40 32 L 36 36 Z" fill="url(#cubeGradient3)" stroke="#374151" stroke-width="1"/>
  
  <!-- Wireframe lines -->
  <line x1="20" y1="20" x2="24" y2="16" stroke="#8B5CF6" stroke-width="1" opacity="0.7"/>
  <line x1="36" y1="20" x2="40" y2="16" stroke="#8B5CF6" stroke-width="1" opacity="0.7"/>
  <line x1="36" y1="36" x2="40" y2="32" stroke="#8B5CF6" stroke-width="1" opacity="0.7"/>
  <line x1="20" y1="36" x2="24" y2="32" stroke="#8B5CF6" stroke-width="1" opacity="0.7"/>
  <line x1="24" y1="16" x2="24" y2="32" stroke="#8B5CF6" stroke-width="1" opacity="0.7"/>
  <line x1="40" y1="16" x2="40" y2="32" stroke="#8B5CF6" stroke-width="1" opacity="0.7"/>
  
  <!-- Rotation arrows -->
  <g transform="translate(48, 20)">
    <circle cx="0" cy="0" r="6" fill="white" opacity="0.9"/>
    <path d="M -3 -2 A 3 3 0 0 1 3 -2" stroke="url(#3dGradient)" stroke-width="2" fill="none"/>
    <path d="M 2 -3 L 3 -2 L 2 -1" stroke="url(#3dGradient)" stroke-width="2" fill="none"/>
  </g>
  
  <g transform="translate(48, 44)">
    <circle cx="0" cy="0" r="6" fill="white" opacity="0.9"/>
    <path d="M -3 2 A 3 3 0 0 0 3 2" stroke="url(#3dGradient)" stroke-width="2" fill="none"/>
    <path d="M -2 3 L -3 2 L -2 1" stroke="url(#3dGradient)" stroke-width="2" fill="none"/>
  </g>
  
  <!-- View indicator -->
  <circle cx="16" cy="48" r="3" fill="white" opacity="0.9"/>
  <circle cx="16" cy="48" r="1.5" fill="url(#3dGradient)"/>
  
  <!-- Grid lines for perspective -->
  <line x1="12" y1="44" x2="44" y2="44" stroke="white" stroke-width="0.5" opacity="0.3"/>
  <line x1="12" y1="48" x2="44" y2="48" stroke="white" stroke-width="0.5" opacity="0.3"/>
  <line x1="12" y1="52" x2="44" y2="52" stroke="white" stroke-width="0.5" opacity="0.3"/>
  
  <line x1="16" y1="40" x2="16" y2="56" stroke="white" stroke-width="0.5" opacity="0.3"/>
  <line x1="24" y1="40" x2="24" y2="56" stroke="white" stroke-width="0.5" opacity="0.3"/>
  <line x1="32" y1="40" x2="32" y2="56" stroke="white" stroke-width="0.5" opacity="0.3"/>
  <line x1="40" y1="40" x2="40" y2="56" stroke="white" stroke-width="0.5" opacity="0.3"/>
</svg>