<svg xmlns="http://www.w3.org/2000/svg" viewBox="0 0 24 24" fill="none" stroke="currentColor" stroke-width="2" stroke-linecap="round" stroke-linejoin="round">
  <rect x="3" y="3" width="18" height="18" rx="2" ry="2" fill="#f59e0b" stroke="#f59e0b"/>
  <rect x="5" y="5" width="3" height="3" rx="1" fill="#fbbf24"/>
  <rect x="9" y="5" width="3" height="3" rx="1" fill="#fbbf24"/>
  <rect x="13" y="5" width="3" height="3" rx="1" fill="#fbbf24"/>
  <rect x="17" y="5" width="3" height="3" rx="1" fill="#fbbf24"/>
  <rect x="5" y="9" width="3" height="3" rx="1" fill="#fbbf24"/>
  <rect x="9" y="9" width="3" height="3" rx="1" fill="#f59e0b"/>
  <rect x="13" y="9" width="3" height="3" rx="1" fill="#fbbf24"/>
  <rect x="17" y="9" width="3" height="3" rx="1" fill="#fbbf24"/>
  <rect x="5" y="13" width="3" height="3" rx="1" fill="#fbbf24"/>
  <rect x="9" y="13" width="3" height="3" rx="1" fill="#fbbf24"/>
  <rect x="13" y="13" width="3" height="3" rx="1" fill="#f59e0b"/>
  <rect x="17" y="13" width="3" height="3" rx="1" fill="#fbbf24"/>
  <rect x="5" y="17" width="3" height="3" rx="1" fill="#fbbf24"/>
  <rect x="9" y="17" width="3" height="3" rx="1" fill="#fbbf24"/>
  <rect x="13" y="17" width="3" height="3" rx="1" fill="#fbbf24"/>
  <rect x="17" y="17" width="3" height="3" rx="1" fill="#f59e0b"/>
  <text x="10.5" y="11" font-family="Arial, sans-serif" font-size="2" font-weight="bold" fill="white" text-anchor="middle">2</text>
  <text x="14.5" y="15" font-family="Arial, sans-serif" font-size="2" font-weight="bold" fill="white" text-anchor="middle">4</text>
  <text x="18.5" y="19" font-family="Arial, sans-serif" font-size="2" font-weight="bold" fill="white" text-anchor="middle">8</text>
</svg>