<svg xmlns="http://www.w3.org/2000/svg" viewBox="0 0 64 64" width="64" height="64">
  <defs>
    <linearGradient id="mapGradient" x1="0%" y1="0%" x2="100%" y2="100%">
      <stop offset="0%" style="stop-color:#FF6B6B;stop-opacity:1" />
      <stop offset="25%" style="stop-color:#4ECDC4;stop-opacity:1" />
      <stop offset="50%" style="stop-color:#45B7D1;stop-opacity:1" />
      <stop offset="75%" style="stop-color:#96CEB4;stop-opacity:1" />
      <stop offset="100%" style="stop-color:#FFEAA7;stop-opacity:1" />
    </linearGradient>
    <filter id="mapShadow">
      <feDropShadow dx="1" dy="1" stdDeviation="1" flood-opacity="0.3"/>
    </filter>
  </defs>
  
  <!-- Background circle -->
  <circle cx="32" cy="32" r="28" fill="url(#mapGradient)" opacity="0.1"/>
  
  <!-- Map background -->
  <rect x="8" y="8" width="48" height="48" rx="4" fill="#FFFFFF" stroke="#2C3E50" stroke-width="2" filter="url(#mapShadow)"/>
  
  <!-- Region 1 (Top-left) - Red -->
  <path d="M 12 12 L 28 12 L 24 28 L 12 24 Z" fill="#FF6B6B" stroke="#2C3E50" stroke-width="1.5"/>
  
  <!-- Region 2 (Top-right) - Teal -->
  <path d="M 28 12 L 52 12 L 52 20 L 40 24 L 24 28 Z" fill="#4ECDC4" stroke="#2C3E50" stroke-width="1.5"/>
  
  <!-- Region 3 (Middle-left) - Blue -->
  <path d="M 12 24 L 24 28 L 20 44 L 12 40 Z" fill="#45B7D1" stroke="#2C3E50" stroke-width="1.5"/>
  
  <!-- Region 4 (Middle-right) - Green -->
  <path d="M 24 28 L 40 24 L 44 36 L 32 40 L 20 44 Z" fill="#96CEB4" stroke="#2C3E50" stroke-width="1.5"/>
  
  <!-- Region 5 (Bottom-left) - Yellow -->
  <path d="M 12 40 L 20 44 L 16 52 L 12 52 Z" fill="#FFEAA7" stroke="#2C3E50" stroke-width="1.5"/>
  
  <!-- Region 6 (Bottom-center) - Red -->
  <path d="M 20 44 L 32 40 L 36 52 L 16 52 Z" fill="#FF6B6B" stroke="#2C3E50" stroke-width="1.5"/>
  
  <!-- Region 7 (Bottom-right) - Teal -->
  <path d="M 32 40 L 44 36 L 52 44 L 52 52 L 36 52 Z" fill="#4ECDC4" stroke="#2C3E50" stroke-width="1.5"/>
  
  <!-- Region 8 (Top-right corner) - Yellow -->
  <path d="M 40 24 L 52 20 L 52 44 L 44 36 Z" fill="#FFEAA7" stroke="#2C3E50" stroke-width="1.5"/>
  
  <!-- Color palette indicators -->
  <g transform="translate(4, 4)">
    <circle cx="2" cy="2" r="2" fill="#FF6B6B"/>
    <circle cx="8" cy="2" r="2" fill="#4ECDC4"/>
    <circle cx="2" cy="8" r="2" fill="#45B7D1"/>
    <circle cx="8" cy="8" r="2" fill="#96CEB4"/>
  </g>
  
  <!-- Game controller icon -->
  <g transform="translate(48, 4)">
    <rect x="0" y="2" width="8" height="4" rx="2" fill="#2C3E50"/>
    <circle cx="2" cy="4" r="0.8" fill="#FFFFFF"/>
    <circle cx="6" cy="4" r="0.8" fill="#FFFFFF"/>
  </g>
</svg>