<svg xmlns="http://www.w3.org/2000/svg" viewBox="0 0 24 24" fill="none" stroke="currentColor" stroke-width="2" stroke-linecap="round" stroke-linejoin="round">
  <!-- Left image (JPG) -->
  <rect x="2" y="4" width="8" height="6" rx="1" fill="#3b82f6" stroke="#2563eb"/>
  <circle cx="4" cy="6" r="0.8" fill="#fbbf24"/>
  <polygon points="2,8 4,6.5 6,8 8,7 10,9 10,10 2,10" fill="#60a5fa"/>
  <text x="6" y="13" font-family="Arial, sans-serif" font-size="2" font-weight="bold" fill="#3b82f6" text-anchor="middle">JPG</text>
  
  <!-- Arrow -->
  <path d="M11 7 L13 7" stroke="#10b981" stroke-width="2" marker-end="url(#arrow)"/>
  
  <!-- Right image (PNG) -->
  <rect x="14" y="4" width="8" height="6" rx="1" fill="#10b981" stroke="#059669"/>
  <circle cx="16" cy="6" r="0.8" fill="#fbbf24"/>
  <polygon points="14,8 16,6.5 18,8 20,7 22,9 22,10 14,10" fill="#34d399"/>
  <text x="18" y="13" font-family="Arial, sans-serif" font-size="2" font-weight="bold" fill="#10b981" text-anchor="middle">PNG</text>
  
  <!-- Format options -->
  <rect x="4" y="16" width="16" height="6" rx="1" fill="#f3f4f6" stroke="#d1d5db"/>
  <text x="12" y="18.5" font-family="Arial, sans-serif" font-size="1.5" fill="#374151" text-anchor="middle">WEBP • GIF • BMP</text>
  <text x="12" y="20.5" font-family="Arial, sans-serif" font-size="1.5" fill="#374151" text-anchor="middle">TIFF • ICO • SVG</text>
  
  <!-- Arrow marker -->
  <defs>
    <marker id="arrow" markerWidth="10" markerHeight="7" refX="9" refY="3.5" orient="auto">
      <polygon points="0 0, 10 3.5, 0 7" fill="#10b981"/>
    </marker>
  </defs>
</svg>