<svg xmlns="http://www.w3.org/2000/svg" viewBox="0 0 64 64" width="64" height="64">
  <defs>
    <linearGradient id="notesGrad" x1="0%" y1="0%" x2="100%" y2="100%">
      <stop offset="0%" style="stop-color:#4facfe;stop-opacity:1" />
      <stop offset="100%" style="stop-color:#00f2fe;stop-opacity:1" />
    </linearGradient>
    <linearGradient id="paperGrad" x1="0%" y1="0%" x2="100%" y2="100%">
      <stop offset="0%" style="stop-color:#ffffff;stop-opacity:1" />
      <stop offset="100%" style="stop-color:#f8fafc;stop-opacity:1" />
    </linearGradient>
  </defs>
  
  <!-- 背景圆形 -->
  <circle cx="32" cy="32" r="30" fill="url(#notesGrad)" opacity="0.1"/>
  
  <!-- 文档背景 -->
  <rect x="18" y="12" width="28" height="36" rx="2" fill="url(#paperGrad)" stroke="#e2e8f0" stroke-width="1"/>
  
  <!-- 文档顶部标题栏 -->
  <rect x="18" y="12" width="28" height="8" rx="2" fill="url(#notesGrad)" opacity="0.8"/>
  
  <!-- 火箭图标 -->
  <g transform="translate(22, 14)">
    <path d="M2 2 L6 0 L8 2 L6 4 Z" fill="white"/>
    <circle cx="4" cy="2" r="0.5" fill="#fbbf24"/>
  </g>
  
  <!-- 文本行 -->
  <g fill="#64748b">
    <rect x="22" y="26" width="18" height="1.5" rx="0.75"/>
    <rect x="22" y="30" width="16" height="1.5" rx="0.75"/>
    <rect x="22" y="34" width="20" height="1.5" rx="0.75"/>
    <rect x="22" y="38" width="14" height="1.5" rx="0.75"/>
  </g>
  
  <!-- 项目符号 -->
  <g fill="url(#notesGrad)">
    <circle cx="20" cy="26.75" r="1"/>
    <circle cx="20" cy="30.75" r="1"/>
    <circle cx="20" cy="34.75" r="1"/>
    <circle cx="20" cy="38.75" r="1"/>
  </g>
  
  <!-- 笔记本螺旋装订 -->
  <g fill="#cbd5e1">
    <circle cx="16" cy="18" r="1"/>
    <circle cx="16" cy="24" r="1"/>
    <circle cx="16" cy="30" r="1"/>
    <circle cx="16" cy="36" r="1"/>
    <circle cx="16" cy="42" r="1"/>
  </g>
  
  <!-- 钢笔 -->
  <g transform="translate(40, 40) rotate(45)">
    <rect x="0" y="-1" width="8" height="2" rx="1" fill="#374151"/>
    <rect x="6" y="-0.5" width="3" height="1" rx="0.5" fill="url(#notesGrad)"/>
    <circle cx="9" cy="0" r="0.5" fill="#fbbf24"/>
  </g>
</svg>