<svg xmlns="http://www.w3.org/2000/svg" viewBox="0 0 64 64" width="64" height="64">
  <defs>
    <linearGradient id="musicGrad" x1="0%" y1="0%" x2="100%" y2="100%">
      <stop offset="0%" style="stop-color:#667eea;stop-opacity:1" />
      <stop offset="100%" style="stop-color:#764ba2;stop-opacity:1" />
    </linearGradient>
    <linearGradient id="noteGrad" x1="0%" y1="0%" x2="100%" y2="100%">
      <stop offset="0%" style="stop-color:#f093fb;stop-opacity:1" />
      <stop offset="100%" style="stop-color:#f5576c;stop-opacity:1" />
    </linearGradient>
  </defs>
  
  <!-- 背景圆形 -->
  <circle cx="32" cy="32" r="30" fill="url(#musicGrad)" opacity="0.1"/>
  
  <!-- 会议桌 -->
  <ellipse cx="32" cy="45" rx="22" ry="8" fill="#4a5568" opacity="0.3"/>
  
  <!-- 音符 -->
  <g fill="url(#noteGrad)">
    <!-- 主音符 -->
    <circle cx="20" cy="20" r="3"/>
    <rect x="22.5" y="12" width="1.5" height="11" rx="0.75"/>
    
    <!-- 小音符 -->
    <circle cx="44" cy="16" r="2"/>
    <rect x="45.5" y="10" width="1" height="8" rx="0.5"/>
    
    <!-- 音符符号 -->
    <path d="M35 25 Q38 22 42 25 Q38 28 35 25" fill="url(#noteGrad)" opacity="0.8"/>
  </g>
  
  <!-- 音波 -->
  <g stroke="url(#musicGrad)" stroke-width="2" fill="none" opacity="0.6">
    <path d="M15 32 Q20 28 25 32 Q30 36 35 32"/>
    <path d="M29 38 Q34 34 39 38 Q44 42 49 38"/>
  </g>
  
  <!-- 扬声器图标 -->
  <g fill="#4a5568">
    <rect x="8" y="28" width="4" height="8" rx="1"/>
    <path d="M12 30 L16 26 L16 38 L12 34 Z"/>
    <path d="M18 28 Q20 30 20 32 Q20 34 18 36" stroke="#4a5568" stroke-width="1.5" fill="none"/>
  </g>
</svg>