<svg xmlns="http://www.w3.org/2000/svg" viewBox="0 0 24 24" fill="none" stroke="currentColor" stroke-width="2" stroke-linecap="round" stroke-linejoin="round">
  <!-- Lock body -->
  <rect x="6" y="11" width="12" height="9" rx="2" ry="2" fill="#374151" stroke="#1f2937"/>
  
  <!-- Lock shackle -->
  <path d="M9 11 V7 A3 3 0 0 1 15 7 V11" stroke="#374151" stroke-width="2" fill="none"/>
  
  <!-- Password display -->
  <rect x="7" y="13" width="10" height="2" rx="1" fill="#111827"/>
  <text x="12" y="14.5" font-family="monospace" font-size="1.2" fill="#10b981" text-anchor="middle">••••••••</text>
  
  <!-- Key/password symbols -->
  <circle cx="9" cy="17" r="0.8" fill="#3b82f6"/>
  <circle cx="12" cy="17" r="0.8" fill="#ef4444"/>
  <circle cx="15" cy="17" r="0.8" fill="#f59e0b"/>
  
  <!-- Security shield -->
  <path d="M18 3 L20 5 L20 9 C20 11 19 12 18 12 C17 12 16 11 16 9 L16 5 Z" fill="#10b981" stroke="#059669"/>
  <path d="M17 6 L18 7 L19 6" stroke="white" stroke-width="1" fill="none"/>
  
  <!-- Random/shuffle indicator -->
  <path d="M3 8 L5 6 L3 4" stroke="#6b7280" stroke-width="1.5" fill="none"/>
  <path d="M3 6 L5 6" stroke="#6b7280" stroke-width="1.5"/>
  <circle cx="2" cy="6" r="0.5" fill="#6b7280"/>
  <circle cx="4" cy="4" r="0.3" fill="#6b7280"/>
  <circle cx="4" cy="8" r="0.3" fill="#6b7280"/>
</svg>