<svg xmlns="http://www.w3.org/2000/svg" viewBox="0 0 24 24" fill="none" stroke="currentColor" stroke-width="2" stroke-linecap="round" stroke-linejoin="round">
  <!-- PDF document -->
  <rect x="2" y="2" width="8" height="12" rx="1" fill="#ef4444" stroke="#dc2626"/>
  <rect x="3" y="3" width="6" height="2" fill="#fca5a5"/>
  <rect x="3" y="6" width="6" height="1" fill="#fca5a5"/>
  <rect x="3" y="8" width="4" height="1" fill="#fca5a5"/>
  <rect x="3" y="10" width="5" height="1" fill="#fca5a5"/>
  <text x="6" y="16" font-family="Arial, sans-serif" font-size="2" font-weight="bold" fill="#ef4444" text-anchor="middle">PDF</text>
  
  <!-- Arrow -->
  <path d="M11 8 L13 8" stroke="#10b981" stroke-width="2" marker-end="url(#arrow)"/>
  
  <!-- Images -->
  <rect x="14" y="2" width="7" height="5" rx="1" fill="#3b82f6" stroke="#2563eb"/>
  <circle cx="16" cy="4" r="0.6" fill="#fbbf24"/>
  <polygon points="14,5.5 16,4.5 18,5.5 20,4.8 21,6 21,7 14,7" fill="#60a5fa"/>
  
  <rect x="14" y="8" width="7" height="5" rx="1" fill="#10b981" stroke="#059669"/>
  <circle cx="16" cy="10" r="0.6" fill="#fbbf24"/>
  <polygon points="14,11.5 16,10.5 18,11.5 20,10.8 21,12 21,13 14,13" fill="#34d399"/>
  
  <rect x="14" y="14" width="7" height="5" rx="1" fill="#f59e0b" stroke="#d97706"/>
  <circle cx="16" cy="16" r="0.6" fill="#fbbf24"/>
  <polygon points="14,17.5 16,16.5 18,17.5 20,16.8 21,18 21,19 14,19" fill="#fbbf24"/>
  
  <text x="17.5" y="22" font-family="Arial, sans-serif" font-size="1.5" font-weight="bold" fill="#6b7280" text-anchor="middle">JPG</text>
  
  <!-- Arrow marker -->
  <defs>
    <marker id="arrow" markerWidth="10" markerHeight="7" refX="9" refY="3.5" orient="auto">
      <polygon points="0 0, 10 3.5, 0 7" fill="#10b981"/>
    </marker>
  </defs>
</svg>