<svg xmlns="http://www.w3.org/2000/svg" viewBox="0 0 24 24" fill="none" stroke="currentColor" stroke-width="2" stroke-linecap="round" stroke-linejoin="round">
  <!-- QR Code background -->
  <rect x="4" y="4" width="16" height="16" rx="1" fill="white" stroke="#374151"/>
  
  <!-- QR Code pattern -->
  <!-- Top-left finder pattern -->
  <rect x="5" y="5" width="3" height="3" fill="#000"/>
  <rect x="6" y="6" width="1" height="1" fill="white"/>
  
  <!-- Top-right finder pattern -->
  <rect x="16" y="5" width="3" height="3" fill="#000"/>
  <rect x="17" y="6" width="1" height="1" fill="white"/>
  
  <!-- Bottom-left finder pattern -->
  <rect x="5" y="16" width="3" height="3" fill="#000"/>
  <rect x="6" y="17" width="1" height="1" fill="white"/>
  
  <!-- Data modules (simplified pattern) -->
  <rect x="9" y="5" width="1" height="1" fill="#000"/>
  <rect x="11" y="5" width="1" height="1" fill="#000"/>
  <rect x="13" y="5" width="1" height="1" fill="#000"/>
  <rect x="15" y="5" width="1" height="1" fill="#000"/>
  
  <rect x="5" y="9" width="1" height="1" fill="#000"/>
  <rect x="7" y="9" width="1" height="1" fill="#000"/>
  <rect x="9" y="9" width="1" height="1" fill="#000"/>
  <rect x="11" y="9" width="1" height="1" fill="#000"/>
  <rect x="13" y="9" width="1" height="1" fill="#000"/>
  <rect x="15" y="9" width="1" height="1" fill="#000"/>
  <rect x="17" y="9" width="1" height="1" fill="#000"/>
  <rect x="19" y="9" width="1" height="1" fill="#000"/>
  
  <rect x="9" y="11" width="1" height="1" fill="#000"/>
  <rect x="11" y="11" width="1" height="1" fill="#000"/>
  <rect x="13" y="11" width="1" height="1" fill="#000"/>
  <rect x="15" y="11" width="1" height="1" fill="#000"/>
  <rect x="17" y="11" width="1" height="1" fill="#000"/>
  <rect x="19" y="11" width="1" height="1" fill="#000"/>
  
  <rect x="5" y="13" width="1" height="1" fill="#000"/>
  <rect x="7" y="13" width="1" height="1" fill="#000"/>
  <rect x="9" y="13" width="1" height="1" fill="#000"/>
  <rect x="11" y="13" width="1" height="1" fill="#000"/>
  <rect x="13" y="13" width="1" height="1" fill="#000"/>
  <rect x="15" y="13" width="1" height="1" fill="#000"/>
  <rect x="17" y="13" width="1" height="1" fill="#000"/>
  <rect x="19" y="13" width="1" height="1" fill="#000"/>
  
  <rect x="9" y="15" width="1" height="1" fill="#000"/>
  <rect x="11" y="15" width="1" height="1" fill="#000"/>
  <rect x="13" y="15" width="1" height="1" fill="#000"/>
  <rect x="15" y="15" width="1" height="1" fill="#000"/>
  <rect x="17" y="15" width="1" height="1" fill="#000"/>
  <rect x="19" y="15" width="1" height="1" fill="#000"/>
  
  <rect x="9" y="17" width="1" height="1" fill="#000"/>
  <rect x="11" y="17" width="1" height="1" fill="#000"/>
  <rect x="13" y="17" width="1" height="1" fill="#000"/>
  <rect x="15" y="17" width="1" height="1" fill="#000"/>
  <rect x="17" y="17" width="1" height="1" fill="#000"/>
  <rect x="19" y="17" width="1" height="1" fill="#000"/>
  
  <rect x="9" y="19" width="1" height="1" fill="#000"/>
  <rect x="11" y="19" width="1" height="1" fill="#000"/>
  <rect x="13" y="19" width="1" height="1" fill="#000"/>
  <rect x="15" y="19" width="1" height="1" fill="#000"/>
  <rect x="17" y="19" width="1" height="1" fill="#000"/>
  <rect x="19" y="19" width="1" height="1" fill="#000"/>
  
  <!-- Corner brackets -->
  <path d="M2 6 L2 2 L6 2" stroke="#3b82f6" stroke-width="2" fill="none"/>
  <path d="M18 2 L22 2 L22 6" stroke="#3b82f6" stroke-width="2" fill="none"/>
  <path d="M22 18 L22 22 L18 22" stroke="#3b82f6" stroke-width="2" fill="none"/>
  <path d="M6 22 L2 22 L2 18" stroke="#3b82f6" stroke-width="2" fill="none"/>
</svg>