<svg xmlns="http://www.w3.org/2000/svg" viewBox="0 0 64 64" width="64" height="64">
  <defs>
    <linearGradient id="rainbowGrad" x1="0%" y1="0%" x2="100%" y2="0%">
      <stop offset="0%" style="stop-color:#ff0000;stop-opacity:1" />
      <stop offset="16.66%" style="stop-color:#ff8000;stop-opacity:1" />
      <stop offset="33.33%" style="stop-color:#ffff00;stop-opacity:1" />
      <stop offset="50%" style="stop-color:#00ff00;stop-opacity:1" />
      <stop offset="66.66%" style="stop-color:#0080ff;stop-opacity:1" />
      <stop offset="83.33%" style="stop-color:#8000ff;stop-opacity:1" />
      <stop offset="100%" style="stop-color:#ff0080;stop-opacity:1" />
    </linearGradient>
    <linearGradient id="cloudGrad" x1="0%" y1="0%" x2="100%" y2="100%">
      <stop offset="0%" style="stop-color:#ffffff;stop-opacity:1" />
      <stop offset="100%" style="stop-color:#e2e8f0;stop-opacity:1" />
    </linearGradient>
    <radialGradient id="sunGrad" cx="50%" cy="50%" r="50%">
      <stop offset="0%" style="stop-color:#fbbf24;stop-opacity:1" />
      <stop offset="100%" style="stop-color:#f59e0b;stop-opacity:1" />
    </radialGradient>
  </defs>
  
  <!-- 背景天空 -->
  <rect x="0" y="0" width="64" height="64" fill="url(#rainbowGrad)" opacity="0.1" rx="32"/>
  
  <!-- 彩虹弧线 -->
  <g fill="none" stroke-width="3" stroke-linecap="round">
    <path d="M8 45 Q32 20 56 45" stroke="#ff0000" opacity="0.9"/>
    <path d="M10 47 Q32 24 54 47" stroke="#ff8000" opacity="0.9"/>
    <path d="M12 49 Q32 28 52 49" stroke="#ffff00" opacity="0.9"/>
    <path d="M14 51 Q32 32 50 51" stroke="#00ff00" opacity="0.9"/>
    <path d="M16 53 Q32 36 48 53" stroke="#0080ff" opacity="0.9"/>
    <path d="M18 55 Q32 40 46 55" stroke="#8000ff" opacity="0.9"/>
  </g>
  
  <!-- 太阳 -->
  <circle cx="48" cy="16" r="6" fill="url(#sunGrad)"/>
  <g stroke="url(#sunGrad)" stroke-width="1.5" stroke-linecap="round">
    <line x1="48" y1="6" x2="48" y2="8"/>
    <line x1="48" y1="24" x2="48" y2="26"/>
    <line x1="38" y1="16" x2="40" y2="16"/>
    <line x1="56" y1="16" x2="58" y2="16"/>
    <line x1="41.5" y1="9.5" x2="42.9" y2="10.9"/>
    <line x1="53.1" y1="21.1" x2="54.5" y2="22.5"/>
    <line x1="54.5" y1="9.5" x2="53.1" y2="10.9"/>
    <line x1="42.9" y1="21.1" x2="41.5" y2="22.5"/>
  </g>
  
  <!-- 云朵 -->
  <g fill="url(#cloudGrad)" stroke="#cbd5e1" stroke-width="0.5">
    <!-- 左侧云朵 -->
    <ellipse cx="16" cy="38" rx="6" ry="4"/>
    <ellipse cx="12" cy="36" rx="4" ry="3"/>
    <ellipse cx="20" cy="36" rx="5" ry="3"/>
    
    <!-- 右侧云朵 -->
    <ellipse cx="52" cy="42" rx="5" ry="3"/>
    <ellipse cx="48" cy="40" rx="3" ry="2"/>
    <ellipse cx="56" cy="40" rx="4" ry="2"/>
  </g>
  
  <!-- 调色板 -->
  <g transform="translate(8, 8)">
    <ellipse cx="8" cy="8" rx="8" ry="6" fill="white" stroke="#cbd5e1" stroke-width="1"/>
    <!-- 颜色点 -->
    <circle cx="4" cy="6" r="1.5" fill="#ff0000"/>
    <circle cx="8" cy="4" r="1.5" fill="#ff8000"/>
    <circle cx="12" cy="6" r="1.5" fill="#ffff00"/>
    <circle cx="6" cy="10" r="1.5" fill="#00ff00"/>
    <circle cx="10" cy="10" r="1.5" fill="#0080ff"/>
    <circle cx="8" cy="12" r="1.5" fill="#8000ff"/>
    <!-- 画笔 -->
    <line x1="14" y1="2" x2="16" y2="0" stroke="#8b4513" stroke-width="1"/>
    <ellipse cx="15" cy="1" rx="0.5" ry="1" fill="#2d3436"/>
  </g>
  
  <!-- 颜色样本 -->
  <g transform="translate(44, 52)">
    <rect x="0" y="0" width="16" height="8" rx="1" fill="white" stroke="#cbd5e1" stroke-width="1"/>
    <rect x="1" y="1" width="2" height="6" fill="#ff0000"/>
    <rect x="3" y="1" width="2" height="6" fill="#ff8000"/>
    <rect x="5" y="1" width="2" height="6" fill="#ffff00"/>
    <rect x="7" y="1" width="2" height="6" fill="#00ff00"/>
    <rect x="9" y="1" width="2" height="6" fill="#0080ff"/>
    <rect x="11" y="1" width="2" height="6" fill="#8000ff"/>
    <rect x="13" y="1" width="2" height="6" fill="#ff0080"/>
  </g>
  
  <!-- 魔法星星装饰 -->
  <g fill="url(#sunGrad)" opacity="0.6">
    <g transform="translate(24, 12)">
      <path d="M0,-2 L0.6,-0.6 L2,0 L0.6,0.6 L0,2 L-0.6,0.6 L-2,0 L-0.6,-0.6 Z"/>
    </g>
    <g transform="translate(36, 8)">
      <path d="M0,-1.5 L0.4,-0.4 L1.5,0 L0.4,0.4 L0,1.5 L-0.4,0.4 L-1.5,0 L-0.4,-0.4 Z"/>
    </g>
    <g transform="translate(20, 24)">
      <path d="M0,-1 L0.3,-0.3 L1,0 L0.3,0.3 L0,1 L-0.3,0.3 L-1,0 L-0.3,-0.3 Z"/>
    </g>
  </g>
</svg>