<svg width="64" height="64" viewBox="0 0 64 64" xmlns="http://www.w3.org/2000/svg">
  <defs>
    <linearGradient id="aiGradient" x1="0%" y1="0%" x2="100%" y2="100%">
      <stop offset="0%" style="stop-color:#667eea;stop-opacity:1" />
      <stop offset="100%" style="stop-color:#764ba2;stop-opacity:1" />
    </linearGradient>
    <linearGradient id="textGradient" x1="0%" y1="0%" x2="100%" y2="100%">
      <stop offset="0%" style="stop-color:#f093fb;stop-opacity:1" />
      <stop offset="100%" style="stop-color:#f5576c;stop-opacity:1" />
    </linearGradient>
    <filter id="shadow" x="-20%" y="-20%" width="140%" height="140%">
      <feDropShadow dx="2" dy="4" stdDeviation="3" flood-color="#000000" flood-opacity="0.2"/>
    </filter>
  </defs>
  
  <!-- Background circle -->
  <circle cx="32" cy="32" r="28" fill="url(#aiGradient)" filter="url(#shadow)"/>
  
  <!-- AI Brain/Circuit pattern -->
  <g transform="translate(12, 12)">
    <!-- Central AI core -->
    <circle cx="20" cy="20" r="6" fill="#ffffff" opacity="0.9"/>
    <circle cx="20" cy="20" r="3" fill="url(#textGradient)"/>
    
    <!-- Neural network connections -->
    <path d="M14 20 L8 14 M26 20 L32 14 M20 14 L20 8 M14 26 L8 32 M26 26 L32 32 M20 26 L20 32" 
          stroke="#ffffff" stroke-width="2" opacity="0.7" stroke-linecap="round"/>
    
    <!-- Connection nodes -->
    <circle cx="8" cy="14" r="2" fill="#ffffff" opacity="0.8"/>
    <circle cx="32" cy="14" r="2" fill="#ffffff" opacity="0.8"/>
    <circle cx="20" cy="8" r="2" fill="#ffffff" opacity="0.8"/>
    <circle cx="8" cy="32" r="2" fill="#ffffff" opacity="0.8"/>
    <circle cx="32" cy="32" r="2" fill="#ffffff" opacity="0.8"/>
    <circle cx="20" cy="32" r="2" fill="#ffffff" opacity="0.8"/>
  </g>
  
  <!-- Text/Document elements -->
  <g transform="translate(42, 42)">
    <!-- Document background -->
    <rect x="0" y="0" width="16" height="20" rx="2" fill="#ffffff" opacity="0.9"/>
    
    <!-- Text lines -->
    <rect x="2" y="3" width="12" height="1.5" fill="url(#textGradient)" opacity="0.8"/>
    <rect x="2" y="6" width="10" height="1.5" fill="url(#textGradient)" opacity="0.6"/>
    <rect x="2" y="9" width="12" height="1.5" fill="url(#textGradient)" opacity="0.8"/>
    <rect x="2" y="12" width="8" height="1.5" fill="url(#textGradient)" opacity="0.6"/>
    
    <!-- Optimization arrow -->
    <path d="M14 15 L18 17 L14 19" stroke="url(#textGradient)" stroke-width="2" 
          fill="none" stroke-linecap="round" stroke-linejoin="round"/>
  </g>
  
  <!-- AI sparkles/enhancement indicators -->
  <g opacity="0.8">
    <path d="M48 16 L50 18 L48 20 L46 18 Z" fill="#ffffff"/>
    <path d="M16 48 L18 50 L16 52 L14 50 Z" fill="#ffffff"/>
    <circle cx="52" cy="28" r="1.5" fill="#ffffff"/>
    <circle cx="12" cy="36" r="1.5" fill="#ffffff"/>
  </g>
</svg>