<svg width="64" height="64" viewBox="0 0 64 64" xmlns="http://www.w3.org/2000/svg">
  <defs>
    <linearGradient id="decorationGradient" x1="0%" y1="0%" x2="100%" y2="100%">
      <stop offset="0%" style="stop-color:#667eea;stop-opacity:1" />
      <stop offset="100%" style="stop-color:#764ba2;stop-opacity:1" />
    </linearGradient>
    <linearGradient id="interiorGradient" x1="0%" y1="0%" x2="100%" y2="100%">
      <stop offset="0%" style="stop-color:#ffecd2;stop-opacity:1" />
      <stop offset="100%" style="stop-color:#fcb69f;stop-opacity:1" />
    </linearGradient>
    <filter id="shadow" x="-20%" y="-20%" width="140%" height="140%">
      <feDropShadow dx="2" dy="4" stdDeviation="3" flood-color="#000000" flood-opacity="0.2"/>
    </filter>
  </defs>
  
  <!-- Background circle -->
  <circle cx="32" cy="32" r="28" fill="url(#decorationGradient)" filter="url(#shadow)"/>
  
  <!-- Room/House structure -->
  <g transform="translate(8, 12)">
    <!-- Room walls -->
    <rect x="0" y="8" width="48" height="32" rx="2" fill="#ffffff" opacity="0.9"/>
    
    <!-- Floor -->
    <rect x="2" y="32" width="44" height="8" fill="url(#interiorGradient)" opacity="0.8"/>
    
    <!-- Back wall -->
    <rect x="2" y="10" width="44" height="22" fill="#f8f9fa" opacity="0.9"/>
    
    <!-- Window -->
    <rect x="32" y="14" width="12" height="8" rx="1" fill="#87ceeb" opacity="0.8"/>
    <rect x="37" y="14" width="2" height="8" fill="#ffffff" opacity="0.6"/>
    <rect x="32" y="17" width="12" height="2" fill="#ffffff" opacity="0.6"/>
  </g>
  
  <!-- Furniture elements -->
  <g>
    <!-- Sofa -->
    <rect x="12" y="38" width="16" height="6" rx="2" fill="url(#interiorGradient)" opacity="0.8"/>
    <rect x="10" y="36" width="4" height="8" rx="2" fill="url(#interiorGradient)" opacity="0.8"/>
    <rect x="26" y="36" width="4" height="8" rx="2" fill="url(#interiorGradient)" opacity="0.8"/>
    
    <!-- Coffee table -->
    <rect x="34" y="42" width="12" height="4" rx="1" fill="#8b4513" opacity="0.8"/>
    
    <!-- Lamp -->
    <rect x="48" y="32" width="2" height="12" fill="#654321"/>
    <ellipse cx="49" cy="30" rx="4" ry="3" fill="url(#interiorGradient)" opacity="0.7"/>
  </g>
  
  <!-- AI Analysis indicators -->
  <g opacity="0.8">
    <!-- AI scanning lines -->
    <path d="M8 20 L56 20 M8 28 L56 28 M8 36 L56 36" 
          stroke="#00ff88" stroke-width="1" opacity="0.6" stroke-dasharray="2,2"/>
    
    <!-- Analysis points -->
    <circle cx="20" cy="20" r="2" fill="#00ff88" opacity="0.8"/>
    <circle cx="40" cy="28" r="2" fill="#00ff88" opacity="0.8"/>
    <circle cx="30" cy="36" r="2" fill="#00ff88" opacity="0.8"/>
  </g>
  
  <!-- Style indicators -->
  <g transform="translate(52, 8)">
    <!-- Color palette -->
    <rect x="0" y="0" width="8" height="8" rx="1" fill="#ffffff" opacity="0.9"/>
    <rect x="1" y="1" width="2" height="2" fill="#ff6b6b"/>
    <rect x="4" y="1" width="2" height="2" fill="#4ecdc4"/>
    <rect x="1" y="4" width="2" height="2" fill="#45b7d1"/>
    <rect x="4" y="4" width="2" height="2" fill="#f9ca24"/>
  </g>
  
  <!-- AI brain/processing indicator -->
  <g transform="translate(4, 4)">
    <circle cx="6" cy="6" r="4" fill="#ffffff" opacity="0.9"/>
    <circle cx="6" cy="6" r="2" fill="url(#decorationGradient)"/>
    
    <!-- Neural connections -->
    <path d="M2 6 L10 6 M6 2 L6 10 M3 3 L9 9 M9 3 L3 9" 
          stroke="#ffffff" stroke-width="1" opacity="0.7"/>
  </g>
  
  <!-- Style testing arrows -->
  <g transform="translate(56, 32)" opacity="0.7">
    <path d="M0 0 L4 2 L0 4" stroke="#ffffff" stroke-width="2" 
          fill="none" stroke-linecap="round" stroke-linejoin="round"/>
  </g>
</svg>