<svg width="64" height="64" viewBox="0 0 64 64" xmlns="http://www.w3.org/2000/svg">
  <!-- Background Circle with Gradient -->
  <defs>
    <linearGradient id="bgGradient" x1="0%" y1="0%" x2="100%" y2="100%">
      <stop offset="0%" style="stop-color:#667eea;stop-opacity:1" />
      <stop offset="100%" style="stop-color:#764ba2;stop-opacity:1" />
    </linearGradient>
    <linearGradient id="editorGradient" x1="0%" y1="0%" x2="100%" y2="100%">
      <stop offset="0%" style="stop-color:#ff9a9e;stop-opacity:1" />
      <stop offset="100%" style="stop-color:#fecfef;stop-opacity:1" />
    </linearGradient>
    <linearGradient id="canvasGradient" x1="0%" y1="0%" x2="100%" y2="100%">
      <stop offset="0%" style="stop-color:#4facfe;stop-opacity:1" />
      <stop offset="100%" style="stop-color:#00f2fe;stop-opacity:1" />
    </linearGradient>
    <linearGradient id="toolGradient" x1="0%" y1="0%" x2="100%" y2="100%">
      <stop offset="0%" style="stop-color:#a8edea;stop-opacity:1" />
      <stop offset="100%" style="stop-color:#fed6e3;stop-opacity:1" />
    </linearGradient>
    <linearGradient id="layerGradient" x1="0%" y1="0%" x2="100%" y2="100%">
      <stop offset="0%" style="stop-color:#fa709a;stop-opacity:1" />
      <stop offset="100%" style="stop-color:#fee140;stop-opacity:1" />
    </linearGradient>
    <linearGradient id="colorGradient" x1="0%" y1="0%" x2="100%" y2="100%">
      <stop offset="0%" style="stop-color:#43e97b;stop-opacity:1" />
      <stop offset="100%" style="stop-color:#38f9d7;stop-opacity:1" />
    </linearGradient>
    <linearGradient id="imageGradient" x1="0%" y1="0%" x2="100%" y2="100%">
      <stop offset="0%" style="stop-color:#ff6b6b;stop-opacity:1" />
      <stop offset="50%" style="stop-color:#4ecdc4;stop-opacity:1" />
      <stop offset="100%" style="stop-color:#45b7d1;stop-opacity:1" />
    </linearGradient>
    <linearGradient id="panelGradient" x1="0%" y1="0%" x2="100%" y2="100%">
      <stop offset="0%" style="stop-color:#96fbc4;stop-opacity:1" />
      <stop offset="100%" style="stop-color:#f9f047;stop-opacity:1" />
    </linearGradient>
    <linearGradient id="menuGradient" x1="0%" y1="0%" x2="100%" y2="100%">
      <stop offset="0%" style="stop-color:#ffecd2;stop-opacity:1" />
      <stop offset="100%" style="stop-color:#fcb69f;stop-opacity:1" />
    </linearGradient>
    <linearGradient id="filterGradient" x1="0%" y1="0%" x2="100%" y2="100%">
      <stop offset="0%" style="stop-color:#667eea;stop-opacity:1" />
      <stop offset="50%" style="stop-color:#764ba2;stop-opacity:1" />
      <stop offset="100%" style="stop-color:#f093fb;stop-opacity:1" />
    </linearGradient>
    <radialGradient id="glowGradient" cx="50%" cy="50%" r="50%">
      <stop offset="0%" style="stop-color:#ffffff;stop-opacity:1" />
      <stop offset="50%" style="stop-color:#fee140;stop-opacity:0.8" />
      <stop offset="100%" style="stop-color:#fa709a;stop-opacity:0.3" />
    </radialGradient>
  </defs>
  
  <!-- Background Circle -->
  <circle cx="32" cy="32" r="30" fill="url(#bgGradient)" stroke="#667eea" stroke-width="2"/>
  
  <!-- Image Editor Interface -->
  <g transform="translate(2, 4)">
    <rect x="0" y="0" width="60" height="48" rx="4" fill="url(#editorGradient)" stroke="#fecfef" stroke-width="2"/>
    
    <!-- Editor Background -->
    <g transform="translate(1, 1)">
      <rect x="0" y="0" width="58" height="46" rx="3" fill="#2c3e50" stroke="#ff9a9e" stroke-width="1" opacity="0.95"/>
      
      <!-- Menu Bar -->
      <g transform="translate(1, 1)">
        <rect x="0" y="0" width="56" height="4" rx="2" fill="url(#menuGradient)" stroke="#fcb69f" stroke-width="0.5"/>
        
        <!-- Menu Items -->
        <g transform="translate(2, 0.5)">
          <rect x="0" y="0" width="6" height="3" rx="1.5" fill="#ffffff" stroke="#ffecd2" stroke-width="0.3" opacity="0.9"/>
          <text x="3" y="2.2" font-family="sans-serif" font-size="0.8" font-weight="bold" fill="#667eea" text-anchor="middle">文件</text>
          
          <rect x="8" y="0" width="6" height="3" rx="1.5" fill="#ffffff" stroke="#ffecd2" stroke-width="0.3" opacity="0.9"/>
          <text x="11" y="2.2" font-family="sans-serif" font-size="0.8" font-weight="bold" fill="#667eea" text-anchor="middle">编辑</text>
          
          <rect x="16" y="0" width="6" height="3" rx="1.5" fill="#ffffff" stroke="#ffecd2" stroke-width="0.3" opacity="0.9"/>
          <text x="19" y="2.2" font-family="sans-serif" font-size="0.8" font-weight="bold" fill="#667eea" text-anchor="middle">滤镜</text>
          
          <rect x="24" y="0" width="6" height="3" rx="1.5" fill="#ffffff" stroke="#ffecd2" stroke-width="0.3" opacity="0.9"/>
          <text x="27" y="2.2" font-family="sans-serif" font-size="0.8" font-weight="bold" fill="#667eea" text-anchor="middle">图层</text>
        </g>
      </g>
      
      <!-- Tool Panel (Left) -->
      <g transform="translate(1, 6)">
        <rect x="0" y="0" width="8" height="38" rx="2" fill="url(#toolGradient)" stroke="#fed6e3" stroke-width="1"/>
        
        <!-- Tool Icons -->
        <g transform="translate(1, 2)">
          <!-- Selection Tool -->
          <g transform="translate(0, 0)">
            <rect x="0" y="0" width="6" height="4" rx="1" fill="#ffffff" stroke="#a8edea" stroke-width="0.5" opacity="0.9">
              <animate attributeName="fill" values="#ffffff;#a8edea;#ffffff" dur="3s" repeatCount="indefinite"/>
            </rect>
            <path d="M 1 1 L 5 1 L 5 3 L 1 3 Z" fill="none" stroke="#667eea" stroke-width="0.3" stroke-dasharray="0.3,0.3">
              <animate attributeName="stroke-dashoffset" values="0;0.6" dur="2s" repeatCount="indefinite"/>
            </path>
            <text x="3" y="2.5" font-family="sans-serif" font-size="0.6" fill="#667eea" text-anchor="middle">选择</text>
          </g>
          
          <!-- Brush Tool -->
          <g transform="translate(0, 5)">
            <rect x="0" y="0" width="6" height="4" rx="1" fill="#ffffff" stroke="#a8edea" stroke-width="0.5" opacity="0.9"/>
            <circle cx="3" cy="2" r="1.5" fill="url(#colorGradient)" opacity="0.8">
              <animate attributeName="r" values="1.5;2;1.5" dur="2.5s" repeatCount="indefinite"/>
            </circle>
            <circle cx="3" cy="2" r="0.8" fill="#ffffff" opacity="0.7"/>
            <text x="3" y="3.5" font-family="sans-serif" font-size="0.6" fill="#667eea" text-anchor="middle">画笔</text>
          </g>
          
          <!-- Eraser Tool -->
          <g transform="translate(0, 10)">
            <rect x="0" y="0" width="6" height="4" rx="1" fill="#ffffff" stroke="#a8edea" stroke-width="0.5" opacity="0.9"/>
            <rect x="1.5" y="1" width="3" height="2" rx="0.5" fill="#e74c3c" opacity="0.8"/>
            <rect x="2" y="1.3" width="2" height="1.4" rx="0.3" fill="#ffffff" opacity="0.9"/>
            <text x="3" y="3.5" font-family="sans-serif" font-size="0.6" fill="#667eea" text-anchor="middle">橡皮</text>
          </g>
          
          <!-- Clone Tool -->
          <g transform="translate(0, 15)">
            <rect x="0" y="0" width="6" height="4" rx="1" fill="#ffffff" stroke="#a8edea" stroke-width="0.5" opacity="0.9"/>
            <circle cx="2.2" cy="1.8" r="0.8" fill="url(#imageGradient)" opacity="0.8"/>
            <circle cx="3.8" cy="2.2" r="0.8" fill="url(#imageGradient)" opacity="0.6">
              <animate attributeName="opacity" values="0.6;0.3;0.6" dur="2s" repeatCount="indefinite"/>
            </circle>
            <text x="3" y="3.5" font-family="sans-serif" font-size="0.6" fill="#667eea" text-anchor="middle">克隆</text>
          </g>
          
          <!-- Crop Tool -->
          <g transform="translate(0, 20)">
            <rect x="0" y="0" width="6" height="4" rx="1" fill="#ffffff" stroke="#a8edea" stroke-width="0.5" opacity="0.9"/>
            <rect x="1.5" y="1.2" width="3" height="1.6" rx="0.2" fill="none" stroke="#2ecc71" stroke-width="0.4"/>
            <path d="M 1.5 1.2 L 1 0.7 M 4.5 1.2 L 5 0.7 M 1.5 2.8 L 1 3.3 M 4.5 2.8 L 5 3.3" stroke="#2ecc71" stroke-width="0.3"/>
            <text x="3" y="3.5" font-family="sans-serif" font-size="0.6" fill="#667eea" text-anchor="middle">裁剪</text>
          </g>
          
          <!-- Text Tool -->
          <g transform="translate(0, 25)">
            <rect x="0" y="0" width="6" height="4" rx="1" fill="#ffffff" stroke="#a8edea" stroke-width="0.5" opacity="0.9"/>
            <text x="3" y="2.5" font-family="serif" font-size="1.2" font-weight="bold" fill="#667eea" text-anchor="middle">A</text>
            <text x="3" y="3.5" font-family="sans-serif" font-size="0.6" fill="#667eea" text-anchor="middle">文字</text>
          </g>
          
          <!-- Filter Tool -->
          <g transform="translate(0, 30)">
            <rect x="0" y="0" width="6" height="4" rx="1" fill="#ffffff" stroke="#a8edea" stroke-width="0.5" opacity="0.9"/>
            <circle cx="3" cy="2" r="1.2" fill="url(#filterGradient)" opacity="0.8">
              <animate attributeName="fill" values="url(#filterGradient);#f093fb;url(#filterGradient)" dur="3s" repeatCount="indefinite"/>
            </circle>
            <circle cx="3" cy="2" r="0.6" fill="#ffffff" opacity="0.7"/>
            <text x="3" y="3.5" font-family="sans-serif" font-size="0.6" fill="#667eea" text-anchor="middle">滤镜</text>
          </g>
        </g>
      </g>
      
      <!-- Main Canvas Area -->
      <g transform="translate(10, 6)">
        <rect x="0" y="0" width="32" height="24" rx="2" fill="url(#canvasGradient)" stroke="#00f2fe" stroke-width="1"/>
        
        <!-- Canvas Background -->
        <g transform="translate(1, 1)">
          <rect x="0" y="0" width="30" height="22" rx="1" fill="#ffffff" stroke="#4facfe" stroke-width="0.5"/>
          
          <!-- Checkerboard Pattern -->
          <defs>
            <pattern id="checkerboard" x="0" y="0" width="2" height="2" patternUnits="userSpaceOnUse">
              <rect x="0" y="0" width="1" height="1" fill="#f8f9fa"/>
              <rect x="1" y="1" width="1" height="1" fill="#f8f9fa"/>
              <rect x="1" y="0" width="1" height="1" fill="#e9ecef"/>
              <rect x="0" y="1" width="1" height="1" fill="#e9ecef"/>
            </pattern>
          </defs>
          <rect x="0" y="0" width="30" height="22" fill="url(#checkerboard)" opacity="0.3"/>
          
          <!-- Sample Image -->
          <g transform="translate(2, 2)">
            <rect x="0" y="0" width="26" height="18" rx="1" fill="url(#imageGradient)" stroke="#45b7d1" stroke-width="0.5"/>
            
            <!-- Image Content -->
            <g transform="translate(1, 1)">
              <!-- Sky -->
              <rect x="0" y="0" width="24" height="8" rx="0.5" fill="#87ceeb" opacity="0.9"/>
              
              <!-- Clouds -->
              <ellipse cx="6" cy="3" rx="3" ry="1.5" fill="#ffffff" opacity="0.8">
                <animate attributeName="cx" values="6;8;6" dur="8s" repeatCount="indefinite"/>
              </ellipse>
              <ellipse cx="18" cy="2" rx="2.5" ry="1.2" fill="#ffffff" opacity="0.7">
                <animate attributeName="cx" values="18;20;18" dur="6s" repeatCount="indefinite"/>
              </ellipse>
              
              <!-- Mountains -->
              <path d="M 0 8 L 8 4 L 16 6 L 24 8 L 24 16 L 0 16 Z" fill="#8fbc8f" opacity="0.8"/>
              <path d="M 4 8 L 12 5 L 20 7 L 24 8 L 24 16 L 4 16 Z" fill="#9acd32" opacity="0.7"/>
              
              <!-- Trees -->
              <ellipse cx="5" cy="12" rx="1.5" ry="3" fill="#228b22" opacity="0.8"/>
              <ellipse cx="19" cy="13" rx="1.2" ry="2.5" fill="#228b22" opacity="0.8"/>
              
              <!-- Water -->
              <rect x="0" y="14" width="24" height="2" fill="#4682b4" opacity="0.6">
                <animate attributeName="opacity" values="0.6;0.4;0.6" dur="3s" repeatCount="indefinite"/>
              </rect>
              
              <!-- Reflection -->
              <ellipse cx="6" cy="15" rx="3" ry="0.5" fill="#ffffff" opacity="0.3">
                <animate attributeName="opacity" values="0.3;0.1;0.3" dur="3s" repeatCount="indefinite"/>
              </ellipse>
            </g>
            
            <!-- Selection Marquee -->
            <rect x="8" y="6" width="10" height="8" rx="0.5" fill="none" stroke="#ffffff" stroke-width="0.4" stroke-dasharray="0.8,0.8" opacity="0.9">
              <animate attributeName="stroke-dashoffset" values="0;1.6" dur="2s" repeatCount="indefinite"/>
            </rect>
            
            <!-- Transform Handles -->
            <g stroke="#ffffff" stroke-width="0.3" fill="#4facfe">
              <rect x="7.5" y="5.5" width="1" height="1" rx="0.2"/>
              <rect x="12.5" y="5.5" width="1" height="1" rx="0.2"/>
              <rect x="17.5" y="5.5" width="1" height="1" rx="0.2"/>
              <rect x="7.5" y="9.5" width="1" height="1" rx="0.2"/>
              <rect x="17.5" y="9.5" width="1" height="1" rx="0.2"/>
              <rect x="7.5" y="13.5" width="1" height="1" rx="0.2"/>
              <rect x="12.5" y="13.5" width="1" height="1" rx="0.2"/>
              <rect x="17.5" y="13.5" width="1" height="1" rx="0.2"/>
            </g>
          </g>
        </g>
        
        <!-- Canvas Info -->
        <g transform="translate(1, 25)">
          <rect x="0" y="0" width="30" height="2" rx="1" fill="url(#panelGradient)" stroke="#f9f047" stroke-width="0.3"/>
          <text x="15" y="1.4" font-family="monospace" font-size="0.7" fill="#667eea" text-anchor="middle">1920x1080 | RGB | 72 DPI</text>
        </g>
      </g>
      
      <!-- Layers Panel (Right) -->
      <g transform="translate(43, 6)">
        <rect x="0" y="0" width="14" height="20" rx="2" fill="url(#layerGradient)" stroke="#fee140" stroke-width="1"/>
        
        <!-- Panel Header -->
        <g transform="translate(1, 1)">
          <rect x="0" y="0" width="12" height="2.5" rx="1" fill="#ffffff" stroke="#fa709a" stroke-width="0.3" opacity="0.9"/>
          <text x="6" y="1.8" font-family="sans-serif" font-size="0.8" font-weight="bold" fill="#667eea" text-anchor="middle">图层</text>
        </g>
        
        <!-- Layer Items -->
        <g transform="translate(1, 4)">
          <!-- Layer 3 -->
          <g transform="translate(0, 0)">
            <rect x="0" y="0" width="12" height="3" rx="0.5" fill="#ffffff" stroke="#fa709a" stroke-width="0.3" opacity="0.9">
              <animate attributeName="fill" values="#ffffff;#fee140;#ffffff" dur="4s" repeatCount="indefinite"/>
            </rect>
            <rect x="0.5" y="0.5" width="2" height="2" rx="0.3" fill="url(#imageGradient)" stroke="#45b7d1" stroke-width="0.2"/>
            <text x="3.5" y="1.8" font-family="sans-serif" font-size="0.6" fill="#667eea">文字图层</text>
            <circle cx="10.5" cy="1.5" r="0.4" fill="#43e97b" stroke="#38f9d7" stroke-width="0.2"/>
          </g>
          
          <!-- Layer 2 -->
          <g transform="translate(0, 3.5)">
            <rect x="0" y="0" width="12" height="3" rx="0.5" fill="#ffffff" stroke="#fa709a" stroke-width="0.3" opacity="0.9"/>
            <rect x="0.5" y="0.5" width="2" height="2" rx="0.3" fill="url(#filterGradient)" stroke="#f093fb" stroke-width="0.2"/>
            <text x="3.5" y="1.8" font-family="sans-serif" font-size="0.6" fill="#667eea">调整图层</text>
            <circle cx="10.5" cy="1.5" r="0.4" fill="#43e97b" stroke="#38f9d7" stroke-width="0.2"/>
          </g>
          
          <!-- Layer 1 (Active) -->
          <g transform="translate(0, 7)">
            <rect x="0" y="0" width="12" height="3" rx="0.5" fill="#4facfe" stroke="#00f2fe" stroke-width="0.5" opacity="0.9">
              <animate attributeName="stroke-width" values="0.5;1;0.5" dur="2s" repeatCount="indefinite"/>
            </rect>
            <rect x="0.5" y="0.5" width="2" height="2" rx="0.3" fill="url(#imageGradient)" stroke="#45b7d1" stroke-width="0.2"/>
            <text x="3.5" y="1.8" font-family="sans-serif" font-size="0.6" fill="#ffffff" font-weight="bold">背景</text>
            <circle cx="10.5" cy="1.5" r="0.4" fill="#43e97b" stroke="#38f9d7" stroke-width="0.2"/>
          </g>
          
          <!-- Layer Controls -->
          <g transform="translate(0, 11)">
            <rect x="0" y="0" width="12" height="2.5" rx="0.5" fill="url(#colorGradient)" stroke="#38f9d7" stroke-width="0.3"/>
            
            <!-- Opacity Slider -->
            <g transform="translate(1, 0.5)">
              <rect x="0" y="0" width="8" height="0.8" rx="0.4" fill="#ffffff" stroke="#43e97b" stroke-width="0.2" opacity="0.8"/>
              <circle cx="6" cy="0.4" r="0.4" fill="url(#layerGradient)" stroke="#fee140" stroke-width="0.2">
                <animateTransform attributeName="transform" type="translate" values="0 0;-4 0;0 0" dur="4s" repeatCount="indefinite"/>
              </circle>
              <text x="10" y="0.6" font-family="sans-serif" font-size="0.5" fill="#ffffff">不透明度</text>
            </g>
            
            <!-- Blend Mode -->
            <g transform="translate(1, 1.5)">
              <rect x="0" y="0" width="10" height="0.8" rx="0.4" fill="#ffffff" stroke="#43e97b" stroke-width="0.2" opacity="0.8"/>
              <text x="5" y="0.6" font-family="sans-serif" font-size="0.5" fill="#667eea" text-anchor="middle">正常</text>
            </g>
          </g>
        </g>
      </g>
      
      <!-- Color Palette (Bottom Right) -->
      <g transform="translate(43, 27)">
        <rect x="0" y="0" width="14" height="16" rx="2" fill="url(#colorGradient)" stroke="#38f9d7" stroke-width="1"/>
        
        <!-- Panel Header -->
        <g transform="translate(1, 1)">
          <rect x="0" y="0" width="12" height="2.5" rx="1" fill="#ffffff" stroke="#43e97b" stroke-width="0.3" opacity="0.9"/>
          <text x="6" y="1.8" font-family="sans-serif" font-size="0.8" font-weight="bold" fill="#667eea" text-anchor="middle">颜色</text>
        </g>
        
        <!-- Color Swatches -->
        <g transform="translate(1, 4)">
          <!-- Primary Colors -->
          <g transform="translate(0, 0)">
            <rect x="0" y="0" width="3" height="3" rx="0.5" fill="#e74c3c" stroke="#ffffff" stroke-width="0.3">
              <animate attributeName="fill" values="#e74c3c;#c0392b;#e74c3c" dur="3s" repeatCount="indefinite"/>
            </rect>
            <rect x="3.5" y="0" width="3" height="3" rx="0.5" fill="#3498db" stroke="#ffffff" stroke-width="0.3"/>
            <rect x="7" y="0" width="3" height="3" rx="0.5" fill="#2ecc71" stroke="#ffffff" stroke-width="0.3"/>
          </g>
          
          <!-- Secondary Colors -->
          <g transform="translate(0, 3.5)">
            <rect x="0" y="0" width="3" height="3" rx="0.5" fill="#f39c12" stroke="#ffffff" stroke-width="0.3"/>
            <rect x="3.5" y="0" width="3" height="3" rx="0.5" fill="#9b59b6" stroke="#ffffff" stroke-width="0.3"/>
            <rect x="7" y="0" width="3" height="3" rx="0.5" fill="#34495e" stroke="#ffffff" stroke-width="0.3"/>
          </g>
          
          <!-- Gradient Colors -->
          <g transform="translate(0, 7)">
            <rect x="0" y="0" width="10" height="2" rx="1" fill="url(#imageGradient)" stroke="#ffffff" stroke-width="0.3"/>
            <text x="5" y="1.4" font-family="sans-serif" font-size="0.6" fill="#ffffff" text-anchor="middle">渐变色</text>
          </g>
          
          <!-- Color Picker -->
          <g transform="translate(0, 10)">
            <circle cx="5" cy="1" r="1.5" fill="url(#glowGradient)" stroke="#ffffff" stroke-width="0.3">
              <animate attributeName="fill" values="url(#glowGradient);#fee140;url(#glowGradient)" dur="2s" repeatCount="indefinite"/>
            </circle>
            <circle cx="5" cy="1" r="0.8" fill="#ffffff" opacity="0.8"/>
            <circle cx="5" cy="1" r="0.4" fill="#667eea"/>
          </g>
        </g>
      </g>
    </g>
  </g>
  
  <!-- Glow Effect -->
  <g transform="translate(32, 32)">
    <circle cx="0" cy="0" r="25" fill="url(#glowGradient)" opacity="0.1">
      <animate attributeName="opacity" values="0.1;0.3;0.1" dur="3s" repeatCount="indefinite"/>
      <animate attributeName="r" values="20;30;20" dur="3s" repeatCount="indefinite"/>
    </circle>
  </g>
  
  <!-- Floating Design Elements -->
  <g transform="translate(8, 2)">
    <g opacity="0.8">
      <animateTransform attributeName="transform" type="translate" values="8 2;12 0;8 2" dur="4s" repeatCount="indefinite"/>
      <rect x="-0.8" y="-0.8" width="1.6" height="1.6" rx="0.3" fill="url(#imageGradient)" stroke="#45b7d1" stroke-width="0.3"/>
      <rect x="-0.5" y="-0.5" width="1" height="1" rx="0.2" fill="#ffffff" opacity="0.8"/>
    </g>
  </g>
  
  <g transform="translate(56, 2)">
    <g opacity="0.8">
      <animateTransform attributeName="transform" type="translate" values="56 2;52 0;56 2" dur="4s" repeatCount="indefinite" begin="2s"/>
      <circle cx="0" cy="0" r="0.8" fill="url(#colorGradient)" stroke="#38f9d7" stroke-width="0.3"/>
      <circle cx="0" cy="0" r="0.4" fill="#ffffff" opacity="0.7"/>
    </g>
  </g>
  
  <!-- Sparkle Effects -->
  <g transform="translate(16, 1)">
    <path d="M 0 0 L 0.8 -1.6 L 1.6 0 L 0.8 1.6 Z" fill="url(#canvasGradient)" opacity="0.9">
      <animateTransform attributeName="transform" type="scale" values="0.5;1.3;0.5" dur="2.5s" repeatCount="indefinite" begin="0s"/>
    </path>
  </g>
  
  <g transform="translate(48, 1)">
    <path d="M 0 0 L 0.8 -1.6 L 1.6 0 L 0.8 1.6 Z" fill="url(#imageGradient)" opacity="0.7">
      <animateTransform attributeName="transform" type="scale" values="0.5;1.3;0.5" dur="2.5s" repeatCount="indefinite" begin="1.2s"/>
    </path>
  </g>
  
  <!-- Tool Category Label -->
  <g transform="translate(32, 1)">
    <rect x="-12" y="0" width="24" height="3" rx="1.5" fill="url(#canvasGradient)" stroke="#00f2fe" stroke-width="0.5"/>
    <text x="0" y="2.2" font-family="sans-serif" font-size="1" font-weight="bold" fill="#ffffff" text-anchor="middle">图像编辑器</text>
  </g>
  
  <!-- Status Displays -->
  <g transform="translate(2, 1)">
    <rect x="0" y="0" width="6" height="2.5" rx="1.25" fill="#43e97b" stroke="#38f9d7" stroke-width="0.5"/>
    <text x="3" y="1.7" font-family="sans-serif" font-size="0.7" font-weight="bold" fill="#ffffff" text-anchor="middle">就绪</text>
  </g>
  
  <g transform="translate(2, 4)">
    <rect x="0" y="0" width="8" height="2.5" rx="1.25" fill="#fee140" stroke="#fa709a" stroke-width="0.5"/>
    <text x="4" y="1.7" font-family="sans-serif" font-size="0.7" font-weight="bold" fill="#667eea" text-anchor="middle">编辑模式</text>
  </g>
  
  <g transform="translate(54, 1)">
    <rect x="0" y="0" width="6" height="2.5" rx="1.25" fill="#4facfe" stroke="#00f2fe" stroke-width="0.5"/>
    <text x="3" y="1.7" font-family="sans-serif" font-size="0.7" font-weight="bold" fill="#ffffff" text-anchor="middle">专业</text>
  </g>
  
  <g transform="translate(54, 4)">
    <rect x="0" y="0" width="6" height="2.5" rx="1.25" fill="#fa709a" stroke="#fee140" stroke-width="0.5"/>
    <text x="3" y="1.7" font-family="sans-serif" font-size="0.7" font-weight="bold" fill="#ffffff" text-anchor="middle">高级</text>
  </g>
  
  <!-- Performance Indicator -->
  <g transform="translate(32, 62)">
    <rect x="-8" y="0" width="16" height="2" rx="1" fill="url(#menuGradient)" stroke="#fcb69f" stroke-width="0.5"/>
    <text x="0" y="1.4" font-family="sans-serif" font-size="0.8" font-weight="bold" fill="#667eea" text-anchor="middle">处理: 实时</text>
  </g>
  
  <g transform="translate(48, 62)">
    <rect x="0" y="0" width="12" height="2" rx="1" fill="url(#canvasGradient)" stroke="#00f2fe" stroke-width="0.5"/>
    <text x="6" y="1.4" font-family="sans-serif" font-size="0.8" font-weight="bold" fill="#ffffff" text-anchor="middle">编辑完成</text>
  </g>
  
  <!-- Version Info -->
  <g transform="translate(4, 62)">
    <rect x="0" y="0" width="6" height="2" rx="1" fill="url(#imageGradient)" stroke="#45b7d1" stroke-width="0.5"/>
    <text x="3" y="1.4" font-family="sans-serif" font-size="0.8" font-weight="bold" fill="#ffffff" text-anchor="middle">v6.0</text>
  </g>
</svg>