<svg xmlns="http://www.w3.org/2000/svg" viewBox="0 0 64 64" width="64" height="64">
  <defs>
    <linearGradient id="convertGrad" x1="0%" y1="0%" x2="100%" y2="100%">
      <stop offset="0%" style="stop-color:#DC2626;stop-opacity:1" />
      <stop offset="100%" style="stop-color:#F59E0B;stop-opacity:1" />
    </linearGradient>
  </defs>
  
  <!-- Background circle -->
  <circle cx="32" cy="32" r="30" fill="url(#convertGrad)" opacity="0.1"/>
  
  <!-- Left image (source) -->
  <rect x="8" y="20" width="18" height="24" rx="3" fill="none" stroke="url(#convertGrad)" stroke-width="2"/>
  <rect x="10" y="22" width="14" height="20" rx="1" fill="url(#convertGrad)" opacity="0.2"/>
  <text x="17" y="50" text-anchor="middle" font-family="Arial, sans-serif" font-size="6" fill="url(#convertGrad)" font-weight="bold">JPG</text>
  
  <!-- Conversion arrow -->
  <path d="M30 32 L34 28 L34 30 L42 30 L42 34 L34 34 L34 36 Z" fill="url(#convertGrad)"/>
  
  <!-- Right image (target) -->
  <rect x="38" y="20" width="18" height="24" rx="3" fill="none" stroke="url(#convertGrad)" stroke-width="2"/>
  <rect x="40" y="22" width="14" height="20" rx="1" fill="url(#convertGrad)" opacity="0.3"/>
  <text x="47" y="50" text-anchor="middle" font-family="Arial, sans-serif" font-size="6" fill="url(#convertGrad)" font-weight="bold">PNG</text>
  
  <!-- Format icons -->
  <circle cx="17" cy="28" r="2" fill="url(#convertGrad)" opacity="0.6"/>
  <rect x="44" y="26" width="6" height="4" rx="1" fill="url(#convertGrad)" opacity="0.6"/>
  
  <!-- Conversion symbol -->
  <circle cx="32" cy="16" r="4" fill="url(#convertGrad)" opacity="0.2"/>
  <text x="32" y="19" text-anchor="middle" font-family="Arial, sans-serif" font-size="8" fill="url(#convertGrad)" font-weight="bold">⟲</text>
</svg>