<svg viewBox="0 0 64 64" xmlns="http://www.w3.org/2000/svg">
  <defs>
    <linearGradient id="colorGradient" x1="0%" y1="0%" x2="100%" y2="100%">
      <stop offset="0%" style="stop-color:#FF6B6B;stop-opacity:1" />
      <stop offset="25%" style="stop-color:#4ECDC4;stop-opacity:1" />
      <stop offset="50%" style="stop-color:#45B7D1;stop-opacity:1" />
      <stop offset="75%" style="stop-color:#96CEB4;stop-opacity:1" />
      <stop offset="100%" style="stop-color:#FFEAA7;stop-opacity:1" />
    </linearGradient>
    <filter id="shadow" x="-20%" y="-20%" width="140%" height="140%">
      <feDropShadow dx="2" dy="2" stdDeviation="3" flood-color="#000" flood-opacity="0.2"/>
    </filter>
  </defs>
  
  <!-- Background circle -->
  <circle cx="32" cy="32" r="28" fill="white" stroke="url(#colorGradient)" stroke-width="3" filter="url(#shadow)"/>
  
  <!-- Color wheel segments -->
  <path d="M 32 8 A 24 24 0 0 1 55.4 20 L 44.7 26 A 12 12 0 0 0 32 20 Z" fill="#FF6B6B"/>
  <path d="M 55.4 20 A 24 24 0 0 1 55.4 44 L 44.7 38 A 12 12 0 0 0 44.7 26 Z" fill="#4ECDC4"/>
  <path d="M 55.4 44 A 24 24 0 0 1 32 56 L 32 44 A 12 12 0 0 0 44.7 38 Z" fill="#45B7D1"/>
  <path d="M 32 56 A 24 24 0 0 1 8.6 44 L 19.3 38 A 12 12 0 0 0 32 44 Z" fill="#96CEB4"/>
  <path d="M 8.6 44 A 24 24 0 0 1 8.6 20 L 19.3 26 A 12 12 0 0 0 19.3 38 Z" fill="#FFEAA7"/>
  <path d="M 8.6 20 A 24 24 0 0 1 32 8 L 32 20 A 12 12 0 0 0 19.3 26 Z" fill="#DDA0DD"/>
  
  <!-- Center circle -->
  <circle cx="32" cy="32" r="8" fill="white" stroke="#333" stroke-width="2"/>
  
  <!-- Eyedropper tool -->
  <g transform="translate(32, 32)">
    <!-- Eyedropper handle -->
    <rect x="-1" y="-12" width="2" height="8" fill="#333" rx="1"/>
    <!-- Eyedropper tip -->
    <circle cx="0" cy="-4" r="3" fill="url(#colorGradient)" stroke="#333" stroke-width="1"/>
    <!-- Eyedropper body -->
    <rect x="-2" y="-8" width="4" height="6" fill="#666" rx="1"/>
  </g>
  
  <!-- Color palette squares -->
  <rect x="12" y="48" width="6" height="6" fill="#FF6B6B" rx="1"/>
  <rect x="20" y="48" width="6" height="6" fill="#4ECDC4" rx="1"/>
  <rect x="28" y="48" width="6" height="6" fill="#45B7D1" rx="1"/>
  <rect x="36" y="48" width="6" height="6" fill="#96CEB4" rx="1"/>
  <rect x="44" y="48" width="6" height="6" fill="#FFEAA7" rx="1"/>
</svg>