<svg xmlns="http://www.w3.org/2000/svg" viewBox="0 0 64 64" width="64" height="64">
  <defs>
    <linearGradient id="sketchGrad" x1="0%" y1="0%" x2="100%" y2="100%">
      <stop offset="0%" style="stop-color:#374151;stop-opacity:1" />
      <stop offset="100%" style="stop-color:#6B7280;stop-opacity:1" />
    </linearGradient>
  </defs>
  
  <!-- Background circle -->
  <circle cx="32" cy="32" r="30" fill="url(#sketchGrad)" opacity="0.1"/>
  
  <!-- Source image -->
  <rect x="8" y="16" width="20" height="16" rx="2" fill="none" stroke="url(#sketchGrad)" stroke-width="2"/>
  <rect x="10" y="18" width="16" height="12" rx="1" fill="url(#sketchGrad)" opacity="0.2"/>
  
  <!-- Photo content -->
  <path d="M12 26 L16 22 L20 24 L24 20 L24 28 L12 28 Z" fill="url(#sketchGrad)" opacity="0.3"/>
  <circle cx="22" cy="22" r="1.5" fill="url(#sketchGrad)" opacity="0.5"/>
  
  <!-- Conversion arrow -->
  <path d="M32 24 L36 20 L36 22 L44 22 L44 26 L36 26 L36 28 Z" fill="url(#sketchGrad)"/>
  
  <!-- Target sketch -->
  <rect x="46" y="16" width="20" height="16" rx="2" fill="none" stroke="url(#sketchGrad)" stroke-width="2"/>
  <rect x="48" y="18" width="16" height="12" rx="1" fill="white" stroke="url(#sketchGrad)" stroke-width="1"/>
  
  <!-- Sketch lines -->
  <path d="M50 22 Q52 20 54 22 Q56 24 58 22 Q60 20 62 22" fill="none" stroke="url(#sketchGrad)" stroke-width="1"/>
  <path d="M50 24 Q54 22 58 24 Q60 26 62 24" fill="none" stroke="url(#sketchGrad)" stroke-width="1"/>
  <path d="M50 26 Q52 28 56 26 Q58 24 60 26" fill="none" stroke="url(#sketchGrad)" stroke-width="1"/>
  <circle cx="58" cy="22" r="1" fill="none" stroke="url(#sketchGrad)" stroke-width="1"/>
  
  <!-- Pencil icon -->
  <path d="M12 40 L16 36 L18 38 L14 42 Z" fill="url(#sketchGrad)" opacity="0.6"/>
  <rect x="16" y="34" width="2" height="6" rx="1" fill="url(#sketchGrad)" opacity="0.8" transform="rotate(45 17 37)"/>
  <circle cx="17" cy="33" r="1" fill="url(#sketchGrad)"/>
  
  <!-- Style indicator -->
  <text x="32" y="52" text-anchor="middle" font-family="Arial, sans-serif" font-size="7" fill="url(#sketchGrad)" font-weight="bold">SKETCH</text>
</svg>