<svg xmlns="http://www.w3.org/2000/svg" viewBox="0 0 64 64" width="64" height="64">
  <defs>
    <linearGradient id="iconGrad" x1="0%" y1="0%" x2="100%" y2="100%">
      <stop offset="0%" style="stop-color:#8B5CF6;stop-opacity:1" />
      <stop offset="100%" style="stop-color:#A855F7;stop-opacity:1" />
    </linearGradient>
  </defs>
  
  <!-- Background circle -->
  <circle cx="32" cy="32" r="30" fill="url(#iconGrad)" opacity="0.1"/>
  
  <!-- Source image -->
  <rect x="8" y="18" width="20" height="16" rx="2" fill="none" stroke="url(#iconGrad)" stroke-width="2"/>
  <rect x="10" y="20" width="16" height="12" rx="1" fill="url(#iconGrad)" opacity="0.2"/>
  <circle cx="18" cy="26" r="2" fill="url(#iconGrad)" opacity="0.4"/>
  
  <!-- Conversion arrow -->
  <path d="M32 26 L36 22 L36 24 L44 24 L44 28 L36 28 L36 30 Z" fill="url(#iconGrad)"/>
  
  <!-- Target icon (smaller, pixelated style) -->
  <rect x="46" y="20" width="12" height="12" rx="2" fill="url(#iconGrad)" opacity="0.3"/>
  
  <!-- Pixel grid effect -->
  <rect x="48" y="22" width="2" height="2" fill="url(#iconGrad)"/>
  <rect x="50" y="22" width="2" height="2" fill="url(#iconGrad)" opacity="0.7"/>
  <rect x="52" y="22" width="2" height="2" fill="url(#iconGrad)" opacity="0.5"/>
  <rect x="54" y="22" width="2" height="2" fill="url(#iconGrad)"/>
  
  <rect x="48" y="24" width="2" height="2" fill="url(#iconGrad)" opacity="0.8"/>
  <rect x="50" y="24" width="2" height="2" fill="url(#iconGrad)" opacity="0.3"/>
  <rect x="52" y="24" width="2" height="2" fill="url(#iconGrad)" opacity="0.6"/>
  <rect x="54" y="24" width="2" height="2" fill="url(#iconGrad)" opacity="0.9"/>
  
  <rect x="48" y="26" width="2" height="2" fill="url(#iconGrad)" opacity="0.6"/>
  <rect x="50" y="26" width="2" height="2" fill="url(#iconGrad)" opacity="0.9"/>
  <rect x="52" y="26" width="2" height="2" fill="url(#iconGrad)" opacity="0.4"/>
  <rect x="54" y="26" width="2" height="2" fill="url(#iconGrad)" opacity="0.7"/>
  
  <rect x="48" y="28" width="2" height="2" fill="url(#iconGrad)"/>
  <rect x="50" y="28" width="2" height="2" fill="url(#iconGrad)" opacity="0.5"/>
  <rect x="52" y="28" width="2" height="2" fill="url(#iconGrad)" opacity="0.8"/>
  <rect x="54" y="28" width="2" height="2" fill="url(#iconGrad)"/>
  
  <!-- Size labels -->
  <text x="18" y="42" text-anchor="middle" font-family="Arial, sans-serif" font-size="6" fill="url(#iconGrad)" font-weight="bold">1024px</text>
  <text x="52" y="42" text-anchor="middle" font-family="Arial, sans-serif" font-size="6" fill="url(#iconGrad)" font-weight="bold">32px</text>
  
  <!-- Icon symbol -->
  <rect x="28" y="44" width="8" height="8" rx="2" fill="url(#iconGrad)" opacity="0.2"/>
  <text x="32" y="49" text-anchor="middle" font-family="Arial, sans-serif" font-size="6" fill="url(#iconGrad)" font-weight="bold">ICO</text>
</svg>