<svg xmlns="http://www.w3.org/2000/svg" viewBox="0 0 64 64" width="64" height="64">
  <defs>
    <linearGradient id="watermarkGrad" x1="0%" y1="0%" x2="100%" y2="100%">
      <stop offset="0%" style="stop-color:#0EA5E9;stop-opacity:1" />
      <stop offset="100%" style="stop-color:#3B82F6;stop-opacity:1" />
    </linearGradient>
  </defs>
  
  <!-- Background circle -->
  <circle cx="32" cy="32" r="30" fill="url(#watermarkGrad)" opacity="0.1"/>
  
  <!-- Main image frame -->
  <rect x="12" y="16" width="40" height="32" rx="4" fill="none" stroke="url(#watermarkGrad)" stroke-width="2"/>
  
  <!-- Image content -->
  <rect x="14" y="18" width="36" height="28" rx="2" fill="url(#watermarkGrad)" opacity="0.1"/>
  
  <!-- Landscape in image -->
  <path d="M16 38 L22 30 L28 34 L34 26 L40 30 L46 24 L48 42 L16 42 Z" fill="url(#watermarkGrad)" opacity="0.2"/>
  
  <!-- Sun -->
  <circle cx="42" cy="24" r="2.5" fill="url(#watermarkGrad)" opacity="0.4"/>
  
  <!-- Watermark overlay -->
  <rect x="20" y="32" width="24" height="8" rx="2" fill="url(#watermarkGrad)" opacity="0.3"/>
  <text x="32" y="37" text-anchor="middle" font-family="Arial, sans-serif" font-size="6" fill="url(#watermarkGrad)" font-weight="bold">WATERMARK</text>
  
  <!-- Water drop icon -->
  <path d="M54 20 C54 16 50 12 50 12 S46 16 46 20 C46 22 48 24 50 24 S54 22 54 20 Z" fill="url(#watermarkGrad)" opacity="0.6"/>
  
  <!-- Protection shield -->
  <path d="M8 28 L8 36 C8 38 10 40 12 40 C14 40 16 38 16 36 L16 28 L12 26 Z" fill="url(#watermarkGrad)" opacity="0.5"/>
</svg>