<svg xmlns="http://www.w3.org/2000/svg" viewBox="0 0 64 64" width="64" height="64">
  <defs>
    <linearGradient id="batchGrad" x1="0%" y1="0%" x2="100%" y2="100%">
      <stop offset="0%" style="stop-color:#059669;stop-opacity:1" />
      <stop offset="100%" style="stop-color:#10B981;stop-opacity:1" />
    </linearGradient>
  </defs>
  
  <!-- Background circle -->
  <circle cx="32" cy="32" r="30" fill="url(#batchGrad)" opacity="0.1"/>
  
  <!-- Multiple image frames -->
  <rect x="8" y="12" width="20" height="16" rx="2" fill="none" stroke="url(#batchGrad)" stroke-width="1.5"/>
  <rect x="22" y="18" width="20" height="16" rx="2" fill="none" stroke="url(#batchGrad)" stroke-width="1.5"/>
  <rect x="36" y="24" width="20" height="16" rx="2" fill="none" stroke="url(#batchGrad)" stroke-width="1.5"/>
  
  <!-- Images content -->
  <rect x="10" y="14" width="16" height="12" rx="1" fill="url(#batchGrad)" opacity="0.2"/>
  <rect x="24" y="20" width="16" height="12" rx="1" fill="url(#batchGrad)" opacity="0.3"/>
  <rect x="38" y="26" width="16" height="12" rx="1" fill="url(#batchGrad)" opacity="0.4"/>
  
  <!-- Resize arrows -->
  <path d="M12 46 L8 50 L12 54 M20 46 L24 50 L20 54" stroke="url(#batchGrad)" stroke-width="2" fill="none"/>
  <path d="M40 46 L44 50 L40 54 M48 46 L52 50 L48 54" stroke="url(#batchGrad)" stroke-width="2" fill="none"/>
  
  <!-- Center resize icon -->
  <circle cx="32" cy="50" r="6" fill="url(#batchGrad)" opacity="0.2"/>
  <path d="M29 47 L35 47 M29 53 L35 53 M29 47 L29 53 M35 47 L35 53" stroke="url(#batchGrad)" stroke-width="1.5"/>
</svg>