<svg width="64" height="64" viewBox="0 0 64 64" xmlns="http://www.w3.org/2000/svg">
  <!-- Background Circle with Gradient -->
  <defs>
    <linearGradient id="bgGradient" x1="0%" y1="0%" x2="100%" y2="100%">
      <stop offset="0%" style="stop-color:#667eea;stop-opacity:1" />
      <stop offset="100%" style="stop-color:#764ba2;stop-opacity:1" />
    </linearGradient>
    <linearGradient id="toolboxGradient" x1="0%" y1="0%" x2="100%" y2="100%">
      <stop offset="0%" style="stop-color:#ff9a9e;stop-opacity:1" />
      <stop offset="100%" style="stop-color:#fecfef;stop-opacity:1" />
    </linearGradient>
    <linearGradient id="digitalGradient" x1="0%" y1="0%" x2="100%" y2="100%">
      <stop offset="0%" style="stop-color:#4facfe;stop-opacity:1" />
      <stop offset="100%" style="stop-color:#00f2fe;stop-opacity:1" />
    </linearGradient>
    <linearGradient id="screenGradient" x1="0%" y1="0%" x2="100%" y2="100%">
      <stop offset="0%" style="stop-color:#a8edea;stop-opacity:1" />
      <stop offset="100%" style="stop-color:#fed6e3;stop-opacity:1" />
    </linearGradient>
    <linearGradient id="toolGradient" x1="0%" y1="0%" x2="100%" y2="100%">
      <stop offset="0%" style="stop-color:#fa709a;stop-opacity:1" />
      <stop offset="100%" style="stop-color:#fee140;stop-opacity:1" />
    </linearGradient>
    <linearGradient id="panelGradient" x1="0%" y1="0%" x2="100%" y2="100%">
      <stop offset="0%" style="stop-color:#43e97b;stop-opacity:1" />
      <stop offset="100%" style="stop-color:#38f9d7;stop-opacity:1" />
    </linearGradient>
    <linearGradient id="hologramGradient" x1="0%" y1="0%" x2="100%" y2="100%">
      <stop offset="0%" style="stop-color:#ffecd2;stop-opacity:1" />
      <stop offset="100%" style="stop-color:#fcb69f;stop-opacity:1" />
    </linearGradient>
  </defs>
  
  <!-- Background Circle -->
  <circle cx="32" cy="32" r="30" fill="url(#bgGradient)" stroke="#667eea" stroke-width="2"/>
  
  <!-- Digital Toolbox Base -->
  <g transform="translate(8, 12)">
    <rect x="0" y="0" width="48" height="32" rx="4" fill="url(#toolboxGradient)" stroke="#fecfef" stroke-width="2"/>
    
    <!-- Toolbox Surface -->
    <g transform="translate(2, 2)">
      <rect x="0" y="0" width="44" height="28" rx="2" fill="#ffffff" stroke="#ff9a9e" stroke-width="1" opacity="0.95"/>
      
      <!-- Digital Grid Pattern -->
      <g stroke="#ff9a9e" stroke-width="0.2" opacity="0.3">
        <line x1="0" y1="7" x2="44" y2="7"/>
        <line x1="0" y1="14" x2="44" y2="14"/>
        <line x1="0" y1="21" x2="44" y2="21"/>
        <line x1="11" y1="0" x2="11" y2="28"/>
        <line x1="22" y1="0" x2="22" y2="28"/>
        <line x1="33" y1="0" x2="33" y2="28"/>
      </g>
    </g>
    
    <!-- Central Digital Display -->
    <g transform="translate(16, 6)">
      <rect x="0" y="0" width="16" height="12" rx="2" fill="url(#digitalGradient)" stroke="#00f2fe" stroke-width="1.5"/>
      
      <!-- Screen -->
      <g transform="translate(1, 1)">
        <rect x="0" y="0" width="14" height="10" rx="1" fill="#000000" stroke="#4facfe" stroke-width="0.5"/>
        
        <!-- Digital Interface -->
        <g transform="translate(1, 1)">
          <!-- Status Bar -->
          <rect x="0" y="0" width="12" height="1.5" rx="0.3" fill="url(#panelGradient)" opacity="0.8"/>
          <text x="6" y="1" font-family="monospace" font-size="0.6" fill="#ffffff" text-anchor="middle">DIGITAL TOOLS v3.0</text>
          
          <!-- Tool Icons Display -->
          <g transform="translate(1, 2.5)">
            <!-- Row 1 -->
            <rect x="0" y="0" width="1.5" height="1.5" rx="0.3" fill="url(#toolGradient)" opacity="0.9">
              <animate attributeName="opacity" values="0.9;0.5;0.9" dur="3s" repeatCount="indefinite"/>
            </rect>
            <rect x="2.5" y="0" width="1.5" height="1.5" rx="0.3" fill="url(#panelGradient)" opacity="0.9">
              <animate attributeName="opacity" values="0.9;0.5;0.9" dur="3s" repeatCount="indefinite" begin="0.5s"/>
            </rect>
            <rect x="5" y="0" width="1.5" height="1.5" rx="0.3" fill="url(#digitalGradient)" opacity="0.9">
              <animate attributeName="opacity" values="0.9;0.5;0.9" dur="3s" repeatCount="indefinite" begin="1s"/>
            </rect>
            <rect x="7.5" y="0" width="1.5" height="1.5" rx="0.3" fill="url(#hologramGradient)" opacity="0.9">
              <animate attributeName="opacity" values="0.9;0.5;0.9" dur="3s" repeatCount="indefinite" begin="1.5s"/>
            </rect>
            
            <!-- Row 2 -->
            <rect x="0" y="2.5" width="1.5" height="1.5" rx="0.3" fill="url(#screenGradient)" opacity="0.9">
              <animate attributeName="opacity" values="0.9;0.5;0.9" dur="3s" repeatCount="indefinite" begin="2s"/>
            </rect>
            <rect x="2.5" y="2.5" width="1.5" height="1.5" rx="0.3" fill="url(#toolGradient)" opacity="0.9">
              <animate attributeName="opacity" values="0.9;0.5;0.9" dur="3s" repeatCount="indefinite" begin="2.5s"/>
            </rect>
            <rect x="5" y="2.5" width="1.5" height="1.5" rx="0.3" fill="url(#panelGradient)" opacity="0.9">
              <animate attributeName="opacity" values="0.9;0.5;0.9" dur="3s" repeatCount="indefinite" begin="0.3s"/>
            </rect>
            <rect x="7.5" y="2.5" width="1.5" height="1.5" rx="0.3" fill="url(#digitalGradient)" opacity="0.9">
              <animate attributeName="opacity" values="0.9;0.5;0.9" dur="3s" repeatCount="indefinite" begin="0.8s"/>
            </rect>
          </g>
          
          <!-- Progress Indicator -->
          <g transform="translate(1, 7)">
            <rect x="0" y="0" width="10" height="0.8" rx="0.4" fill="#333333" opacity="0.5"/>
            <rect x="0" y="0" width="7" height="0.8" rx="0.4" fill="url(#panelGradient)">
              <animate attributeName="width" values="0;10;0" dur="4s" repeatCount="indefinite"/>
            </rect>
          </g>
        </g>
      </g>
      
      <!-- Digital Hologram Projector -->
      <g transform="translate(8, -4)">
        <circle cx="0" cy="0" r="1.5" fill="url(#hologramGradient)" stroke="#fcb69f" stroke-width="0.5">
          <animate attributeName="fill" values="url(#hologramGradient);#ffecd2;url(#hologramGradient)" dur="2s" repeatCount="indefinite"/>
        </circle>
        
        <!-- Hologram Beam -->
        <g opacity="0.6">
          <path d="M 0 -1.5 L -2 -6 L 2 -6 Z" fill="url(#digitalGradient)" opacity="0.3">
            <animate attributeName="opacity" values="0.3;0.1;0.3" dur="2s" repeatCount="indefinite"/>
          </path>
          
          <!-- Floating Hologram Tools -->
          <g transform="translate(0, -8)">
            <g opacity="0.8">
              <animateTransform attributeName="transform" type="translate" values="0 -8;-1 -9;0 -8" dur="3s" repeatCount="indefinite"/>
              <rect x="-0.5" y="-0.5" width="1" height="1" rx="0.2" fill="url(#toolGradient)"/>
            </g>
            <g opacity="0.8">
              <animateTransform attributeName="transform" type="translate" values="0 -8;1 -9;0 -8" dur="3s" repeatCount="indefinite" begin="1s"/>
              <circle cx="0" cy="0" r="0.5" fill="url(#panelGradient)"/>
            </g>
          </g>
        </g>
      </g>
    </g>
    
    <!-- Tool Compartments -->
    <g transform="translate(2, 20)">
      <!-- Left Compartment -->
      <g transform="translate(0, 0)">
        <rect x="0" y="0" width="20" height="8" rx="2" fill="url(#screenGradient)" stroke="#fed6e3" stroke-width="1"/>
        
        <!-- Physical Tools -->
        <g transform="translate(2, 2)">
          <!-- Wrench -->
          <g transform="translate(1, 0)">
            <rect x="0" y="0" width="3" height="0.8" rx="0.4" fill="url(#toolGradient)" stroke="#fee140" stroke-width="0.3">
              <animate attributeName="fill" values="url(#toolGradient);#fa709a;url(#toolGradient)" dur="4s" repeatCount="indefinite"/>
            </rect>
            <circle cx="3" cy="0.4" r="0.6" fill="url(#toolGradient)" stroke="#fee140" stroke-width="0.3"/>
          </g>
          
          <!-- Screwdriver -->
          <g transform="translate(6, 0)">
            <rect x="0" y="0" width="0.4" height="3" rx="0.2" fill="url(#toolGradient)" stroke="#fee140" stroke-width="0.3"/>
            <rect x="-0.2" y="0" width="0.8" height="0.8" rx="0.4" fill="url(#digitalGradient)" stroke="#00f2fe" stroke-width="0.3"/>
          </g>
          
          <!-- Hammer -->
          <g transform="translate(9, 0)">
            <rect x="0" y="0" width="2.5" height="1.2" rx="0.3" fill="url(#toolGradient)" stroke="#fee140" stroke-width="0.3"/>
            <rect x="2.5" y="0.3" width="0.4" height="2" rx="0.2" fill="url(#digitalGradient)" stroke="#00f2fe" stroke-width="0.3"/>
          </g>
          
          <!-- Pliers -->
          <g transform="translate(13, 0)">
            <ellipse cx="1" cy="0.6" rx="1" ry="0.4" fill="url(#toolGradient)" stroke="#fee140" stroke-width="0.3"/>
            <rect x="2" y="0.2" width="0.4" height="1.8" rx="0.2" fill="url(#digitalGradient)" stroke="#00f2fe" stroke-width="0.3"/>
          </g>
        </g>
        
        <text x="10" y="12" font-family="sans-serif" font-size="1" fill="#667eea" text-anchor="middle">物理工具</text>
      </g>
      
      <!-- Right Compartment -->
      <g transform="translate(24, 0)">
        <rect x="0" y="0" width="20" height="8" rx="2" fill="url(#screenGradient)" stroke="#fed6e3" stroke-width="1"/>
        
        <!-- Digital Tools -->
        <g transform="translate(2, 2)">
          <!-- Code Editor -->
          <g transform="translate(1, 0)">
            <rect x="0" y="0" width="3" height="2" rx="0.3" fill="url(#digitalGradient)" stroke="#00f2fe" stroke-width="0.3"/>
            <rect x="0.2" y="0.2" width="2.6" height="1.6" rx="0.2" fill="#000000"/>
            <line x1="0.4" y1="0.6" x2="2.6" y2="0.6" stroke="#00ff00" stroke-width="0.1"/>
            <line x1="0.4" y1="1" x2="2.2" y2="1" stroke="#00ff00" stroke-width="0.1"/>
            <line x1="0.4" y1="1.4" x2="2.4" y2="1.4" stroke="#00ff00" stroke-width="0.1"/>
          </g>
          
          <!-- Calculator -->
          <g transform="translate(5.5, 0)">
            <rect x="0" y="0" width="2.5" height="3" rx="0.3" fill="url(#panelGradient)" stroke="#38f9d7" stroke-width="0.3"/>
            <rect x="0.2" y="0.2" width="2.1" height="0.8" rx="0.2" fill="#000000"/>
            <text x="1.25" y="0.8" font-family="monospace" font-size="0.4" fill="#00ff00" text-anchor="middle">123</text>
            
            <!-- Calculator Buttons -->
            <g transform="translate(0.3, 1.2)">
              <rect x="0" y="0" width="0.4" height="0.4" rx="0.1" fill="#ffffff" opacity="0.8"/>
              <rect x="0.5" y="0" width="0.4" height="0.4" rx="0.1" fill="#ffffff" opacity="0.8"/>
              <rect x="1" y="0" width="0.4" height="0.4" rx="0.1" fill="#ffffff" opacity="0.8"/>
              <rect x="1.5" y="0" width="0.4" height="0.4" rx="0.1" fill="#ffffff" opacity="0.8"/>
              
              <rect x="0" y="0.5" width="0.4" height="0.4" rx="0.1" fill="#ffffff" opacity="0.8"/>
              <rect x="0.5" y="0.5" width="0.4" height="0.4" rx="0.1" fill="#ffffff" opacity="0.8"/>
              <rect x="1" y="0.5" width="0.4" height="0.4" rx="0.1" fill="#ffffff" opacity="0.8"/>
              <rect x="1.5" y="0.5" width="0.4" height="0.4" rx="0.1" fill="#ffffff" opacity="0.8"/>
            </g>
          </g>
          
          <!-- Database -->
          <g transform="translate(9, 0)">
            <rect x="0" y="0" width="2.5" height="3" rx="0.3" fill="url(#hologramGradient)" stroke="#fcb69f" stroke-width="0.3"/>
            <ellipse cx="1.25" cy="0.5" rx="1" ry="0.3" fill="#ffffff" opacity="0.8"/>
            <ellipse cx="1.25" cy="1.5" rx="1" ry="0.3" fill="#ffffff" opacity="0.6"/>
            <ellipse cx="1.25" cy="2.5" rx="1" ry="0.3" fill="#ffffff" opacity="0.4"/>
          </g>
          
          <!-- Network -->
          <g transform="translate(13, 0)">
            <circle cx="1" cy="1" r="0.4" fill="url(#digitalGradient)" stroke="#00f2fe" stroke-width="0.2"/>
            <circle cx="2.5" cy="0.5" r="0.3" fill="url(#panelGradient)" stroke="#38f9d7" stroke-width="0.2"/>
            <circle cx="2.5" cy="1.5" r="0.3" fill="url(#toolGradient)" stroke="#fee140" stroke-width="0.2"/>
            <circle cx="1" cy="2.5" r="0.3" fill="url(#hologramGradient)" stroke="#fcb69f" stroke-width="0.2"/>
            
            <!-- Connection Lines -->
            <line x1="1.4" y1="1" x2="2.1" y2="0.5" stroke="url(#digitalGradient)" stroke-width="0.2"/>
            <line x1="1.4" y1="1" x2="2.1" y2="1.5" stroke="url(#digitalGradient)" stroke-width="0.2"/>
            <line x1="1" y1="1.4" x2="1" y2="2.1" stroke="url(#digitalGradient)" stroke-width="0.2"/>
          </g>
        </g>
        
        <text x="10" y="12" font-family="sans-serif" font-size="1" fill="#667eea" text-anchor="middle">数字工具</text>
      </g>
    </g>
  </g>
  
  <!-- Rotating Gear System -->
  <g transform="translate(56, 16)">
    <g>
      <animateTransform attributeName="transform" type="rotate" values="0 0 0;360 0 0" dur="6s" repeatCount="indefinite"/>
      <!-- Main Gear -->
      <circle cx="0" cy="0" r="3" fill="url(#digitalGradient)" stroke="#00f2fe" stroke-width="1"/>
      
      <!-- Gear Teeth -->
      <g>
        <rect x="-0.3" y="-3.8" width="0.6" height="1" rx="0.2" fill="url(#digitalGradient)"/>
        <rect x="-0.3" y="2.8" width="0.6" height="1" rx="0.2" fill="url(#digitalGradient)"/>
        <rect x="-3.8" y="-0.3" width="1" height="0.6" rx="0.2" fill="url(#digitalGradient)"/>
        <rect x="2.8" y="-0.3" width="1" height="0.6" rx="0.2" fill="url(#digitalGradient)"/>
        
        <rect x="-2.7" y="-2.7" width="0.6" height="1" rx="0.2" fill="url(#digitalGradient)" transform="rotate(45)"/>
        <rect x="2.1" y="-2.7" width="0.6" height="1" rx="0.2" fill="url(#digitalGradient)" transform="rotate(45)"/>
        <rect x="-2.7" y="1.7" width="0.6" height="1" rx="0.2" fill="url(#digitalGradient)" transform="rotate(45)"/>
        <rect x="2.1" y="1.7" width="0.6" height="1" rx="0.2" fill="url(#digitalGradient)" transform="rotate(45)"/>
      </g>
      
      <!-- Center Hub -->
      <circle cx="0" cy="0" r="1" fill="#ffffff" stroke="#4facfe" stroke-width="0.5"/>
      <text x="0" y="0.3" font-family="monospace" font-size="0.8" font-weight="bold" fill="#4facfe" text-anchor="middle">D</text>
    </g>
  </g>
  
  <!-- Control Panel -->
  <g transform="translate(4, 48)">
    <rect x="0" y="0" width="56" height="12" rx="2" fill="url(#panelGradient)" stroke="#38f9d7" stroke-width="1"/>
    
    <!-- Status Lights -->
    <g transform="translate(4, 2)">
      <circle cx="0" cy="0" r="1" fill="#43e97b">
        <animate attributeName="opacity" values="1;0.3;1" dur="2s" repeatCount="indefinite"/>
      </circle>
      <text x="0" y="4.5" font-family="sans-serif" font-size="0.7" fill="#ffffff" text-anchor="middle">在线</text>
      
      <circle cx="6" cy="0" r="1" fill="#fee140">
        <animate attributeName="opacity" values="0.3;1;0.3" dur="2s" repeatCount="indefinite" begin="0.5s"/>
      </circle>
      <text x="6" y="4.5" font-family="sans-serif" font-size="0.7" fill="#ffffff" text-anchor="middle">数字化</text>
      
      <circle cx="12" cy="0" r="1" fill="#4facfe">
        <animate attributeName="opacity" values="0.3;1;0.3" dur="2s" repeatCount="indefinite" begin="1s"/>
      </circle>
      <text x="12" y="4.5" font-family="sans-serif" font-size="0.7" fill="#ffffff" text-anchor="middle">同步</text>
    </g>
    
    <!-- Control Buttons -->
    <g transform="translate(20, 2)">
      <rect x="0" y="0" width="5" height="3" rx="1.5" fill="url(#hologramGradient)" stroke="#fcb69f" stroke-width="0.5">
        <animate attributeName="fill" values="url(#hologramGradient);#ffecd2;url(#hologramGradient)" dur="3s" repeatCount="indefinite"/>
      </rect>
      <text x="2.5" y="2" font-family="sans-serif" font-size="0.8" font-weight="bold" fill="#667eea" text-anchor="middle">启动</text>
      
      <rect x="7" y="0" width="5" height="3" rx="1.5" fill="url(#hologramGradient)" stroke="#fcb69f" stroke-width="0.5"/>
      <text x="9.5" y="2" font-family="sans-serif" font-size="0.8" font-weight="bold" fill="#667eea" text-anchor="middle">设置</text>
      
      <rect x="14" y="0" width="6" height="3" rx="1.5" fill="url(#hologramGradient)" stroke="#fcb69f" stroke-width="0.5"/>
      <text x="17" y="2" font-family="sans-serif" font-size="0.8" font-weight="bold" fill="#667eea" text-anchor="middle">数字模式</text>
      
      <rect x="22" y="0" width="6" height="3" rx="1.5" fill="url(#digitalGradient)" stroke="#00f2fe" stroke-width="0.5"/>
      <text x="25" y="2" font-family="sans-serif" font-size="0.8" font-weight="bold" fill="#ffffff" text-anchor="middle">全能工具</text>
    </g>
    
    <!-- Progress Bar -->
    <g transform="translate(4, 7)">
      <rect x="0" y="0" width="48" height="2" rx="1" fill="#ffffff" stroke="#38f9d7" stroke-width="0.3" opacity="0.3"/>
      <rect x="0" y="0" width="36" height="2" rx="1" fill="url(#digitalGradient)" stroke="#00f2fe" stroke-width="0.3">
        <animate attributeName="width" values="0;48;0" dur="5s" repeatCount="indefinite"/>
      </rect>
    </g>
  </g>
  
  <!-- Floating Digital Particles -->
  <g transform="translate(10, 8)">
    <g opacity="0.7">
      <animateTransform attributeName="transform" type="translate" values="10 8;14 6;10 8" dur="4s" repeatCount="indefinite"/>
      <rect x="-0.5" y="-0.5" width="1" height="1" rx="0.2" fill="url(#digitalGradient)" stroke="#00f2fe" stroke-width="0.3"/>
    </g>
  </g>
  
  <g transform="translate(54, 8)">
    <g opacity="0.7">
      <animateTransform attributeName="transform" type="translate" values="54 8;50 6;54 8" dur="4s" repeatCount="indefinite" begin="2s"/>
      <circle cx="0" cy="0" r="0.8" fill="url(#toolGradient)" stroke="#fee140" stroke-width="0.3"/>
    </g>
  </g>
  
  <!-- Sparkle Effects -->
  <g transform="translate(18, 4)">
    <path d="M 0 0 L 0.6 -1.2 L 1.2 0 L 0.6 1.2 Z" fill="url(#digitalGradient)" opacity="0.8">
      <animateTransform attributeName="transform" type="scale" values="0.5;1.2;0.5" dur="2s" repeatCount="indefinite" begin="0s"/>
    </path>
  </g>
  
  <g transform="translate(46, 4)">
    <path d="M 0 0 L 0.6 -1.2 L 1.2 0 L 0.6 1.2 Z" fill="url(#toolGradient)" opacity="0.6">
      <animateTransform attributeName="transform" type="scale" values="0.5;1.2;0.5" dur="2s" repeatCount="indefinite" begin="1s"/>
    </path>
  </g>
  
  <!-- Tool Category Label -->
  <g transform="translate(32, 4)">
    <rect x="-10" y="0" width="20" height="3" rx="1.5" fill="url(#digitalGradient)" stroke="#00f2fe" stroke-width="0.5"/>
    <text x="0" y="2.2" font-family="sans-serif" font-size="1" font-weight="bold" fill="#ffffff" text-anchor="middle">数字化工具箱</text>
  </g>
  
  <!-- Status Displays -->
  <g transform="translate(2, 2)">
    <rect x="0" y="0" width="6" height="2.5" rx="1.25" fill="#43e97b" stroke="#38f9d7" stroke-width="0.5"/>
    <text x="3" y="1.7" font-family="sans-serif" font-size="0.7" font-weight="bold" fill="#ffffff" text-anchor="middle">就绪</text>
  </g>
  
  <g transform="translate(2, 5)">
    <rect x="0" y="0" width="8" height="2.5" rx="1.25" fill="#fee140" stroke="#fa709a" stroke-width="0.5"/>
    <text x="4" y="1.7" font-family="sans-serif" font-size="0.7" font-weight="bold" fill="#667eea" text-anchor="middle">数字模式</text>
  </g>
  
  <g transform="translate(54, 2)">
    <rect x="0" y="0" width="6" height="2.5" rx="1.25" fill="#4facfe" stroke="#00f2fe" stroke-width="0.5"/>
    <text x="3" y="1.7" font-family="sans-serif" font-size="0.7" font-weight="bold" fill="#ffffff" text-anchor="middle">高效</text>
  </g>
  
  <g transform="translate(54, 5)">
    <rect x="0" y="0" width="6" height="2.5" rx="1.25" fill="#fa709a" stroke="#fee140" stroke-width="0.5"/>
    <text x="3" y="1.7" font-family="sans-serif" font-size="0.7" font-weight="bold" fill="#ffffff" text-anchor="middle">专业版</text>
  </g>
  
  <!-- Energy Flow Animation -->
  <g transform="translate(32, 32)">
    <circle cx="0" cy="0" r="26" fill="none" stroke="url(#digitalGradient)" stroke-width="0.8" opacity="0.1">
      <animate attributeName="r" values="22;30;22" dur="5s" repeatCount="indefinite"/>
      <animate attributeName="opacity" values="0.1;0.03;0.1" dur="5s" repeatCount="indefinite"/>
    </circle>
  </g>
  
  <!-- Performance Indicator -->
  <g transform="translate(32, 62)">
    <rect x="-6" y="0" width="12" height="2" rx="1" fill="url(#hologramGradient)" stroke="#fcb69f" stroke-width="0.5"/>
    <text x="0" y="1.4" font-family="sans-serif" font-size="0.8" font-weight="bold" fill="#667eea" text-anchor="middle">性能: A+</text>
  </g>
  
  <g transform="translate(48, 62)">
    <rect x="0" y="0" width="12" height="2" rx="1" fill="url(#digitalGradient)" stroke="#00f2fe" stroke-width="0.5"/>
    <text x="6" y="1.4" font-family="sans-serif" font-size="0.8" font-weight="bold" fill="#ffffff" text-anchor="middle">数字化完成</text>
  </g>
  
  <!-- Version Info -->
  <g transform="translate(4, 62)">
    <rect x="0" y="0" width="6" height="2" rx="1" fill="url(#toolGradient)" stroke="#fee140" stroke-width="0.5"/>
    <text x="3" y="1.4" font-family="sans-serif" font-size="0.8" font-weight="bold" fill="#ffffff" text-anchor="middle">v3.0</text>
  </g>
</svg>